<?xml version="1.0" encoding="utf-8"?>
<!-- Generator: Adobe Illustrator 24.0.1, SVG Export Plug-In . SVG Version: 6.00 Build 0)  -->
<svg version="1.1" id="Capa_1" xmlns="http://www.w3.org/2000/svg" xmlns:xlink="http://www.w3.org/1999/xlink" x="0px" y="0px"
	 viewBox="0 0 400 350" style="enable-background:new 0 0 400 350;" xml:space="preserve">
<style type="text/css">
	.st0{fill:#FFB3B3;}
	.st1{opacity:0.3;}
	.st2{fill:#A61162;}
	.st3{fill:none;stroke:#A61162;stroke-width:0.6293;stroke-miterlimit:10;}
	.st4{opacity:0.6;}
	.st5{fill:#FFFFFF;}
	.st6{fill:#17C3B2;stroke:#227C9D;stroke-width:4.1025;stroke-miterlimit:10;}
	.st7{display:none;}
	.st8{display:inline;}
	.st9{fill:#FA3E3E;stroke:#227C9D;stroke-width:2.8991;stroke-miterlimit:10;}
</style>
<g>
	<g>
		<g>
			<g>
				<path class="st0" d="M99.5,174.6c0,4.6,0.8,9.1,2.4,13.2c5.3,14,18.8,23.9,34.7,23.9c16.2,0,30-10.4,35-24.9
					c29.9,2.2,47-11.2,54.2-36.7c18-4.9,31.2-21.3,31.2-40.9c0-12.6-5.5-24-14.3-31.7c-7.5-6.6-17.3-10.6-28-10.6
					c-12.3,0-23.4,5.3-31.1,13.7c-5.2-3.4-11.4-5.4-18.1-5.4c-4.7,0-9.1,1-13.1,2.7c-11.6,5-19.8,16.5-20,30c0,0.2,0,0.3,0,0.5
					c0,0.2,0,0.4,0,0.6v0c-1.7-0.4-3.4-0.6-5.3-0.6c-8.1,0-15.2,3.9-19.8,9.8h0c-3.1,4.1-5,9.3-5,14.9c0,6,2.2,11.6,5.8,15.9
					c0.3,0.3,0.6,0.7,0.9,1C103.1,156.5,99.5,165.2,99.5,174.6z"/>
			</g>
		</g>
		<g class="st1">
			<g>
				<path class="st2" d="M101.9,187.8c5.3,14,18.8,23.9,34.7,23.9c16.2,0,30-10.4,35-24.9c29.9,2.2,47-11.2,54.2-36.7
					c18-4.9,31.2-21.3,31.2-40.9c0-12.6-5.5-24-14.3-31.7c4.1,10.5-8.6,24.2-25.2,15.5c0,0-0.4-1.2-1.4-2.5
					c-1.8-2.3-5.3-1.4-5.9,1.4c-1.7,8.2-11.2,11.9-16.3-3.1l-6.4-5.2c6.7,19.2-6.7,26.5-20.2,21.9c-1.2-0.4-2.2,0.8-1.7,1.9
					c7,15.4-7,34.8-29.5,28.3c7.7,15.9,3.1,35.9-17.4,31.1c-0.9-0.2-1.5,0.9-0.8,1.6c2.2,2,6.4,4.6,13.8,4.9
					C141.4,191.3,127,216.4,101.9,187.8C101.9,187.8,101.9,187.8,101.9,187.8z"/>
			</g>
		</g>
		<g>
			<g>
				<path class="st2" d="M136.6,213.9c-21.7,0-39.3-17.6-39.3-39.3c0-9,3.1-17.7,8.7-24.7c-3.9-4.8-6-10.7-6-16.9
					c0-14.9,12.1-27,27-27c1,0,2.1,0.1,3.1,0.2c1.1-18.5,16.5-33.3,35.3-33.3c6.3,0,12.4,1.6,17.7,4.8c8.3-8.3,19.7-13.1,31.5-13.1
					c24.6,0,44.5,20,44.5,44.5c0,19.6-12.9,37-31.6,42.6c-7.8,26.2-26.1,38.8-54.5,37.2C167.2,204,152.7,213.9,136.6,213.9z
					 M127,110.5c-12.4,0-22.5,10.1-22.5,22.6c0,5.7,2.2,11.2,6.1,15.4c0.8,0.8,0.8,2.1,0,3c-5.7,6.4-8.9,14.6-8.9,23.2
					c0,19.2,15.6,34.9,34.9,34.9c14.8,0,28.1-9.4,32.9-23.4c0.3-0.9,1.2-1.5,2.2-1.5c27.8,2,44.7-9.5,51.9-35.1
					c0.2-0.7,0.8-1.3,1.5-1.5c17.4-4.7,29.6-20.7,29.6-38.7c0-22.1-18-40.1-40.1-40.1c-11.2,0-22,4.7-29.5,13
					c-0.7,0.8-1.9,0.9-2.8,0.4c-5-3.3-10.8-5-16.9-5c-17,0-30.9,13.9-30.9,30.9c0,0.2,0,0.3,0,0.5c0,0,0,0,0,0.1
					c0,0.7-0.3,1.3-0.8,1.7c-0.5,0.4-1.2,0.6-1.9,0.4C130.3,110.7,128.7,110.5,127,110.5z"/>
			</g>
		</g>
		<g>
			<g>
				<path class="st2" d="M135.7,177.1c-3.1,0-6.2-0.3-9.1-1c-1.2-0.3-1.9-1.4-1.7-2.6c0.3-1.2,1.4-1.9,2.6-1.7
					c2.7,0.6,5.4,0.9,8.2,0.9c21.3,0,38.7-17.4,38.7-38.7c0-9.7-3.6-19-10.2-26.2c-0.8-0.9-0.8-2.3,0.1-3.1c0.9-0.8,2.3-0.8,3.1,0.1
					c7.3,8,11.4,18.3,11.4,29.2C178.8,157.7,159.5,177.1,135.7,177.1z"/>
			</g>
		</g>
		<g>
			<g>
				<path class="st2" d="M188,121.7c-1.2,0-2.2-1-2.2-2.2c0-1.2,1-2.2,2.2-2.2c13.7,0,25.2-10.7,26.2-24.4c0.1-1.2,1.1-2.1,2.3-2
					c1.2,0.1,2.1,1.1,2,2.3C217.5,109.2,204.1,121.7,188,121.7z"/>
			</g>
		</g>
		<g>
			<g>
				<path class="st2" d="M142.8,116.2c-0.5,0-1-0.2-1.4-0.5c-2.8-2.3-6.1-3.9-9.6-4.7c-1.2-0.3-1.9-1.4-1.7-2.6
					c0.3-1.2,1.4-1.9,2.6-1.7c4.2,0.9,8.1,2.8,11.5,5.6c0.9,0.8,1.1,2.2,0.3,3.1C144.1,115.9,143.4,116.2,142.8,116.2z"/>
			</g>
		</g>
		<g>
			<g>
				<path class="st2" d="M194.8,95.3c-0.8,0-1.6-0.4-2-1.2c-2.4-4.7-6.1-8.7-10.6-11.6c-1-0.7-1.3-2-0.6-3c0.7-1,2-1.3,3-0.6
					c5.1,3.3,9.3,7.9,12.1,13.3c0.6,1.1,0.1,2.4-0.9,3C195.5,95.2,195.1,95.3,194.8,95.3z"/>
			</g>
		</g>
		<g>
			<g>
				<path class="st2" d="M108.9,152.2c-0.6,0-1.1-0.2-1.5-0.6c-0.9-0.8-0.9-2.2-0.1-3.1c0.1-0.1,3-3.1,7-6.3c1-0.8,2.3-0.6,3.1,0.4
					c0.8,1,0.6,2.3-0.4,3.1c-3.8,3-6.6,5.9-6.6,5.9C110.1,151.9,109.5,152.2,108.9,152.2z"/>
			</g>
		</g>
		<g>
			<g>
				<path class="st2" d="M144.2,142.4c-0.5,0-0.9-0.1-1.3-0.4c-2.5-1.8-5.4-2.8-8.5-2.8c-0.8,0-1.7,0.1-2.5,0.2
					c-1.2,0.2-2.3-0.6-2.6-1.8c-0.2-1.2,0.6-2.3,1.8-2.6c1.1-0.2,2.2-0.3,3.3-0.3c4,0,7.9,1.3,11.1,3.7c1,0.7,1.2,2.1,0.4,3.1
					C145.5,142.1,144.9,142.4,144.2,142.4z"/>
			</g>
		</g>
		<g>
			<g>
				<path class="st3" d="M245.1,79.9"/>
			</g>
		</g>
		<g class="st1">
			<g>
				<path class="st2" d="M102.3,133.1c0,6,2.2,11.6,5.8,15.9l8.8-5.5c1.1-0.7,1.1-2.4-0.1-3c-13.8-7-9.5-22.3-9.5-22.3h0
					C104.2,122.3,102.3,127.5,102.3,133.1z"/>
			</g>
		</g>
		<g class="st1">
			<g>
				<path class="st2" d="M132.3,107.9c4.4,1.2,9,3.9,12.1,6c1.1,0.7,2.5-0.3,2-1.6c-5.3-15.4-0.8-25.5,7-33.8l-1.2-0.6
					C140.7,82.9,132.5,94.4,132.3,107.9z"/>
			</g>
		</g>
		<g class="st4">
			<g>
				<path class="st5" d="M156.1,87.1c0,3.6,4.4,1.3,9.9,1.3c5.5,0,9.9,2.3,9.9-1.3s-4.4-6.5-9.9-6.5
					C160.5,80.6,156.1,83.5,156.1,87.1z"/>
			</g>
		</g>
		<g class="st4">
			<g>
				<path class="st5" d="M117.2,123.1c0,3.6,4.4,1.3,9.9,1.3c5.5,0,9.9,2.3,9.9-1.3s-4.4-6.5-9.9-6.5
					C121.6,116.7,117.2,119.6,117.2,123.1z"/>
			</g>
		</g>
		<g class="st4">
			<g>
				<path class="st5" d="M126.4,191.4c2.1-2.9-2.8-3.7-7.1-7c-4.4-3.3-6.5-7.8-8.7-4.9c-2.1,2.9-0.3,7.8,4,11.1
					C119,193.9,124.2,194.3,126.4,191.4z"/>
			</g>
		</g>
		<g class="st4">
			<g>
				<path class="st5" d="M212.9,77.7c-1,3.4,4.7,2.7,10.9,4.6s10.6,5.5,11.6,2.1c1-3.4-3.2-7.7-9.4-9.6
					C219.8,73,213.9,74.2,212.9,77.7z"/>
			</g>
		</g>
		<g>
			<g>
				<ellipse transform="matrix(0.7071 -0.7071 0.7071 0.7071 5.5929 167.8959)" class="st5" cx="205.5" cy="77.2" rx="3.5" ry="3"/>
			</g>
		</g>
		<g class="st4">
			<g>
				
					<ellipse transform="matrix(0.9236 -0.3833 0.3833 0.9236 -50.7584 60.1403)" class="st5" cx="125.5" cy="157.4" rx="6.5" ry="4.7"/>
			</g>
		</g>
		<path class="st6" d="M72.5,132.4L29.1,89.3l18.5-18.6l16.8,1.1L63.3,55l18.5-18.6l43.4,43.1L106,98.7L84.3,77.1l1.2,15.6
			l-15.6-1.1l21.7,21.6L72.5,132.4z"/>
		<g>
			<g>
				<g>
					<path class="st2" d="M219.5,219.4c-0.3,0-0.6-0.1-0.9-0.2c-1.1-0.5-1.6-1.8-1-2.9c1.5-3.2,2.5-6.6,2.9-10.1
						c0.1-1.2,1.2-2.1,2.4-1.9c1.2,0.1,2.1,1.2,1.9,2.4c-0.4,4-1.5,7.8-3.3,11.5C221.1,218.9,220.3,219.4,219.5,219.4z"/>
				</g>
			</g>
			<g>
				<g>
					<path class="st0" d="M146.8,191.4c-1.3,3.6-2,7.4-2,11.3c0,19.9,17.4,36,39,36c16,0,29.7-8.9,35.7-21.5
						c5,3.4,10.9,5.3,17.3,5.3c14.3,0,26.4-9.9,30.2-23.3c2.6,0.7,5.4,1,8.3,1c18.7,0,33.9-15.2,33.9-33.9c0-14.4-9-26.7-21.6-31.6
						c0.5-2.1,0.8-4.2,0.8-6.4c0-17-15.8-30.7-35.2-30.7c-11.2,0-21.1,4.5-27.6,11.6c-5.2-2.8-11.1-4.4-17.5-4.4
						c-19.7,0-35.7,15.3-35.7,34.1c0,0.4,0,0.9,0,1.3c-16.3,3-28.6,17.9-28.6,35.9C143.7,181.7,144.8,186.8,146.8,191.4z"/>
				</g>
			</g>
			<g class="st1">
				<g>
					<path class="st2" d="M176.6,176.8c16.5,13.9,45.8,7.5,42.8-22.9l3.5,12.9c9.7,0.8,11.6,8,11.8,16.7l4.3,6c0,0-9.5-8.2-27.3-0.7
						c-17.7,7.6-22.8,10.1-26.6,17.6l-2.3-0.5c-9.5-9.6-15.8-19.2-10.1-28.5C173.5,176,175.4,175.8,176.6,176.8z"/>
				</g>
			</g>
			<g class="st1">
				<g>
					<path class="st2" d="M252.7,162.3c-15.4-1.2-27-12.6-17.3-21c12.6,3.1,15.9-3.5,15.9-3.5c7.7-11,17.6-10.1,28.3-5.1
						c-18.8,2-22.6,27.2-5.2,31.6c-0.8,0.3-13.6,3.9-13.6,3.9l-5.3-3.9"/>
				</g>
			</g>
			<g class="st1">
				<g>
					<path class="st2" d="M189.1,110c-8.9,14.1-9.1,26.4,7.2,35.1c-7.3-3.8-14.8-6.3-22.9-5.7C171.8,125.6,179.1,116.9,189.1,110z"
						/>
				</g>
			</g>
			<g class="st1">
				<g>
					<path class="st2" d="M251.5,97.7c-10.3,4.7-17.5,10.5-14.7,19.7l-8.6-8.6l7.1-5.7l5-2.7"/>
				</g>
			</g>
			<g class="st1">
				<g>
					<path class="st2" d="M146.1,191.4c-3-14.2-1.4-26,3.7-35.9c-2.5,12.7-1.1,20.5,7.7,19.3l-5.7,6.3"/>
				</g>
			</g>
			<g class="st1">
				<g>
					<path class="st2" d="M144.8,202.7c0,19.9,17.4,36,39,36c16,0,29.7-8.9,35.7-21.5c5,3.4,10.9,5.3,17.3,5.3
						c14.3,0,26.4-9.9,30.2-23.3c3.8,0.9,7.8,1.3,11.9,0.8c17.4-1.8,30.3-16.4,30.3-33.9c0-1.9-0.2-3.7-0.5-5.5
						c-2.7,16-16.6,28.2-33.4,28.2c-2.9,0-5.6-0.4-8.3-1c-3.8,13.5-15.9,23.3-30.2,23.3c-5,0-9.7-1.2-13.9-3.3
						c-1.9-0.9-4.1-0.3-5.2,1.4c-6.7,10.8-19.3,18.1-33.8,18.1c-19.4,0-35.5-13.1-38.5-30.3C145,198.9,144.8,200.8,144.8,202.7z"/>
				</g>
			</g>
			<g>
				<g>
					<path class="st2" d="M146.8,193.6c-0.2,0-0.5,0-0.7-0.1c-1.1-0.4-1.7-1.7-1.3-2.8c2.5-7,7.2-13.2,13.4-17.8
						c1-0.7,2.4-0.5,3.1,0.5c0.7,1,0.5,2.4-0.5,3.1c-5.5,4.1-9.7,9.5-11.9,15.7C148.5,193,147.7,193.6,146.8,193.6z"/>
				</g>
			</g>
			<g>
				<g>
					<path class="st2" d="M266.9,201.4c-0.2,0-0.4,0-0.6-0.1c-1.2-0.3-1.9-1.5-1.5-2.7c0.8-2.7,1.2-5.5,1.2-8.4
						c0-11.6-6.3-21.9-16.4-27.1c-1.1-0.5-1.5-1.9-1-3c0.5-1.1,1.9-1.5,3-1c11.6,5.9,18.8,17.7,18.8,31c0,3.3-0.4,6.5-1.3,9.6
						C268.8,200.7,267.9,201.4,266.9,201.4z"/>
				</g>
			</g>
			<g>
				<g>
					<path class="st2" d="M287.5,136.9c-0.3,0-0.5,0-0.8-0.2c-2.6-1-5.4-1.7-8.2-2c-1.2-0.1-2.1-1.2-2-2.4c0.1-1.2,1.2-2.1,2.4-2
						c3.2,0.3,6.4,1.1,9.4,2.3c1.1,0.4,1.7,1.7,1.2,2.9C289.2,136.4,288.4,136.9,287.5,136.9z"/>
				</g>
			</g>
			<g>
				<g>
					<path class="st2" d="M225.4,111.4c-0.6,0-1.1-0.2-1.6-0.6c-0.9-0.9-0.9-2.3,0-3.1l0,0c0.9-0.9,2.3-0.9,3.1,0
						c0.9,0.9,0.9,2.3,0,3.1C226.6,111.2,226,111.4,225.4,111.4z"/>
				</g>
			</g>
			<g>
				<g>
					<path class="st2" d="M236.7,121c-0.7,0-1.3-0.3-1.7-0.9c-2.8-3.6-6.5-6.7-10.6-8.9c-1.1-0.6-1.5-1.9-0.9-3
						c0.6-1.1,1.9-1.5,3-0.9c4.6,2.5,8.8,6,12,10.1c0.7,1,0.6,2.3-0.4,3.1C237.7,120.8,237.2,121,236.7,121z"/>
				</g>
			</g>
			<g>
				<g>
					<path class="st2" d="M183.8,240.9c-22.7,0-41.2-17.1-41.2-38.2c0-3.8,0.6-7.6,1.8-11.3c-2-4.8-3-9.9-3-15.2
						c0-18.2,11.9-33.7,28.6-37.7c0.3-19.8,17.2-35.9,37.9-35.9c5.9,0,11.8,1.3,17,3.9c7.1-7.1,17.2-11.1,28-11.1
						c20.6,0,37.4,14.8,37.4,32.9c0,1.7-0.1,3.4-0.4,5.1c6,2.7,11.1,6.9,14.8,12.3c4.2,6.1,6.5,13.2,6.5,20.6
						c0,19.9-16.2,36.1-36.1,36.1c-2.3,0-4.5-0.2-6.8-0.6c-4.7,13.6-17.5,23-31.7,23c-5.8,0-11.4-1.5-16.4-4.4
						C213.3,232.9,199.2,240.9,183.8,240.9z M208,107.1c-18.5,0-33.5,14.3-33.5,31.9c0,0.5,0,0.9,0,1.2c0.1,1.1-0.7,2.1-1.8,2.3
						c-15.5,2.9-26.8,17-26.8,33.7c0,5,1,9.8,2.9,14.3c0.2,0.5,0.2,1.1,0.1,1.6c-1.2,3.4-1.8,7-1.8,10.6c0,18.6,16.5,33.8,36.8,33.8
						c14.6,0,27.9-8,33.7-20.3c0.3-0.6,0.8-1,1.4-1.2c0.6-0.2,1.3-0.1,1.8,0.3c4.8,3.2,10.3,4.9,16.1,4.9c12.9,0,24.5-8.9,28.1-21.7
						c0.3-1.1,1.5-1.8,2.7-1.5c2.5,0.6,5.1,0.9,7.7,0.9c17.5,0,31.7-14.2,31.7-31.7c0-13.2-7.9-24.7-20.2-29.5
						c-1-0.4-1.6-1.5-1.3-2.6c0.5-1.9,0.7-3.9,0.7-5.9c0-15.7-14.8-28.5-33-28.5c-10.2,0-19.6,4-26,10.9c-0.7,0.7-1.8,0.9-2.7,0.5
						C219.4,108.5,213.7,107.1,208,107.1z"/>
				</g>
			</g>
			<g>
				<g>
					<path class="st2" d="M202.7,152.7c-0.6,0-1.2-0.2-1.6-0.7c-6.1-6.4-14.2-10-22.9-10c-1.9,0-3.8,0.2-5.6,0.5
						c-1.2,0.2-2.3-0.6-2.6-1.8c-0.2-1.2,0.6-2.3,1.8-2.6c2.1-0.4,4.2-0.6,6.4-0.6c9.8,0,19.1,4,26.1,11.4c0.8,0.9,0.8,2.3-0.1,3.1
						C203.8,152.5,203.3,152.7,202.7,152.7z"/>
				</g>
			</g>
			<g>
				<g>
					<path class="st2" d="M195.6,195.5c-8.9,0-17.2-4-22.8-11c-0.8-1-0.6-2.3,0.3-3.1c0.9-0.8,2.3-0.6,3.1,0.3
						c4.7,5.9,11.8,9.3,19.3,9.3c13.6,0,24.7-11.1,24.7-24.7c0-5.7-2-11.3-5.6-15.7c-0.8-0.9-0.6-2.3,0.3-3.1
						c0.9-0.8,2.3-0.6,3.1,0.3c4.2,5.2,6.6,11.7,6.6,18.4C224.7,182.5,211.7,195.5,195.6,195.5z"/>
				</g>
			</g>
			<g>
				<g>
					<path class="st2" d="M183.7,208.9c-1.2,0-2.2-1-2.2-2.2c0-5.5,1.4-10.9,4-15.7c0.6-1.1,1.9-1.5,3-0.9c1.1,0.6,1.5,1.9,0.9,3
						c-2.2,4.1-3.4,8.8-3.4,13.6C185.9,207.9,184.9,208.9,183.7,208.9z"/>
				</g>
			</g>
			<g>
				<g>
					<path class="st2" d="M240,191.7c-0.7,0-1.4-0.3-1.8-1c-4.2-6.3-10.6-10.6-18-12c-1.2-0.2-2-1.4-1.7-2.6c0.2-1.2,1.4-2,2.6-1.7
						c8.5,1.7,15.9,6.6,20.8,13.9c0.7,1,0.4,2.4-0.6,3.1C240.8,191.5,240.4,191.7,240,191.7z"/>
				</g>
			</g>
			<g>
				<g>
					<path class="st2" d="M260.8,171.6c-0.7,0-1.4-0.3-1.8-1c-0.7-1-0.4-2.4,0.6-3.1c5.2-3.6,11.4-5.5,17.7-5.5
						c4,0,7.8,0.7,11.5,2.2c1.1,0.4,1.7,1.7,1.2,2.9c-0.4,1.1-1.7,1.7-2.9,1.2c-3.2-1.3-6.5-1.9-9.9-1.9c-5.5,0-10.7,1.6-15.2,4.7
						C261.7,171.5,261.3,171.6,260.8,171.6z"/>
				</g>
			</g>
			<g>
				<g>
					<path class="st2" d="M238.4,144.6c-2.2,0-4.3-0.3-6.4-0.9c-1.2-0.3-1.8-1.6-1.5-2.7c0.3-1.2,1.6-1.8,2.7-1.5
						c1.7,0.5,3.4,0.7,5.2,0.7c4.8,0,9.3-1.8,12.7-5.2c0.9-0.8,2.3-0.8,3.1,0c0.8,0.9,0.8,2.3,0,3.1
						C250,142.3,244.3,144.6,238.4,144.6z"/>
				</g>
			</g>
			<g class="st4">
				<g>
					<path class="st5" d="M196.3,122.1c0,5,7.5,0.5,15.5,0.5c8,0,13.6,4.5,13.6-0.5s-6.5-9.1-14.6-9.1S196.3,117.1,196.3,122.1z"/>
				</g>
			</g>
			<g class="st4">
				<g>
					<path class="st5" d="M166,153.5c0,4.3,4.5,0,10.6,0s11.6,4.3,11.6,0s-5-7.8-11.1-7.8S166,149.3,166,153.5z"/>
				</g>
			</g>
			<g class="st4">
				<g>
					<path class="st5" d="M192,217.3c1.2-4.1-5.5-1.6-13.1-3.9c-7.6-2.2-13.1-8.3-14.4-4.2c-1.2,4.1,4,9.3,11.5,11.5
						C183.7,223,190.8,221.4,192,217.3z"/>
				</g>
			</g>
			<g class="st4">
				<g>
					<path class="st5" d="M281,147c-2.9,3.2,3.3,3,7.9,7.1s5.7,11,8.6,7.8c2.9-3.2,1.5-9.1-3-13.2C289.9,144.6,283.9,143.8,281,147z
						"/>
				</g>
			</g>
			<g class="st4">
				<g>
					<path class="st5" d="M265.2,110.6c-2.4,2.2,1.3,4.3,4.6,8c3.4,3.7,5.1,7.5,7.5,5.4s1.6-6.9-1.7-10.6S267.5,108.4,265.2,110.6z"
						/>
				</g>
			</g>
			<g class="st4">
				<g>
					
						<ellipse transform="matrix(0.2239 -0.9746 0.9746 0.2239 95.9067 333.6101)" class="st5" cx="257.4" cy="106.6" rx="3.1" ry="4.5"/>
				</g>
			</g>
			<g class="st4">
				<g>
					
						<ellipse transform="matrix(0.6399 -0.7684 0.7684 0.6399 -65.2123 179.968)" class="st5" cx="159.4" cy="159.6" rx="4" ry="3"/>
				</g>
			</g>
			<g class="st4">
				<g>
					<path class="st5" d="M245.7,175.4c-1.8,1,0.6,2.3,2.1,5.5c1.5,3.2,1.4,6.7,3.4,6.2c3.7-0.8,4.3-5.3,2.8-8.5
						C252.5,175.4,249,173.5,245.7,175.4z"/>
				</g>
			</g>
		</g>
	</g>
	<g class="st7">
		<g class="st8">
			<path class="st2" d="M183.8,242.3c-18.5,0-35-11.3-40.6-27.5c-2.2,0.4-4.4,0.5-6.6,0.5c-22.4,0-40.7-18.3-40.7-40.7
				c0-8.9,3-17.6,8.3-24.7c-3.6-4.9-5.6-10.8-5.6-16.9c0-15.7,12.7-28.4,28.4-28.4c0.6,0,1.2,0,1.8,0.1
				c1.8-18.7,17.6-33.2,36.6-33.2c6.1,0,12.1,1.5,17.5,4.4c8.5-8.1,20-12.7,31.7-12.7c19.7,0,37.1,12.4,43.5,31
				c9.1,1,17.5,4.9,23.7,11c6.5,6.3,10.1,14.5,10.1,23.1c0,1.4-0.1,2.8-0.3,4.2c13.1,6.3,21.1,19.1,21.1,33.7
				c0,20.7-16.8,37.5-37.5,37.5c-2,0-3.9-0.2-5.8-0.5c-5.3,13.7-18.2,22.8-32.6,22.8c-5.5,0-11-1.3-15.9-3.9
				C213.3,234.7,199.2,242.3,183.8,242.3z M144.2,211.7c0.6,0,1.2,0.4,1.4,1c4.8,15.7,20.5,26.7,38.2,26.7
				c14.9,0,28.4-7.6,35.3-19.9c0.2-0.3,0.5-0.6,0.9-0.7c0.4-0.1,0.8-0.1,1.1,0.1c4.8,2.8,10.2,4.2,15.7,4.2c13.6,0,25.8-8.8,30.3-22
				c0.2-0.7,0.9-1.1,1.6-0.9c2.1,0.4,4.3,0.6,6.5,0.6c19.1,0,34.6-15.5,34.6-34.6c0-13.8-7.8-25.9-20.4-31.6
				c-0.6-0.3-0.9-0.9-0.8-1.6c0.3-1.6,0.4-3.2,0.4-4.8c0-16.1-13.8-29.6-32.1-31.3c-0.6-0.1-1.1-0.4-1.2-1
				c-5.8-17.9-22.3-29.9-41-29.9c-11.4,0-22.5,4.6-30.5,12.6c-0.5,0.5-1.2,0.6-1.7,0.2c-5.1-3-11-4.6-17-4.6c-18,0-32.8,14-33.8,32
				c0,0.4-0.2,0.8-0.5,1c-0.3,0.3-0.7,0.4-1.1,0.3c-1-0.1-2-0.2-2.9-0.2c-14.1,0-25.5,11.4-25.5,25.5c0,5.8,2,11.5,5.6,16
				c0.4,0.5,0.4,1.3,0,1.8c-5.4,6.7-8.4,15.1-8.4,23.8c0,20.9,17,37.8,37.8,37.8c2.4,0,4.9-0.2,7.3-0.7
				C144,211.7,144.1,211.7,144.2,211.7z"/>
		</g>
	</g>
</g>
<g>
	<path class="st9" d="M51,253.6l-9.2,13c-3.9-1.8-7.4-2.8-10.7-2.8c-2.2,0-3.9,0.6-5.2,1.7s-2,2.6-2,4.5c0,3.5,2.3,5.3,6.9,5.3v-6.8
		h19.1v23.3c-7.7,0.4-13,0.7-15.7,0.7c-10.6,0-17.9-2.2-22-6.7C8.1,281.2,6,276,6,270c0-4.1,1-7.9,2.9-11.3c1.9-3.4,4.7-6.1,8.3-8
		c3.6-1.9,7.9-2.8,12.8-2.8c3.5,0,7.1,0.5,10.8,1.5C44.5,250.4,47.9,251.8,51,253.6z"/>
	<path class="st9" d="M56.2,271.7v-10.2c4.9-2.7,10.6-4,16.8-4c6,0,10.4,1.3,13.2,3.8s4.2,6.4,4.2,11.7v18.9H73v-2.5
		c-2.6,1.9-5.4,2.8-8.5,2.8c-2.6,0-4.8-0.8-6.5-2.5c-1.7-1.7-2.6-3.8-2.6-6.4c0-2.9,1.1-5.3,3.2-7.1c2.2-1.8,5-2.8,8.4-2.8
		c2,0,4,0.3,6,0.8c0-1.6-0.6-2.8-1.8-3.7c-1.2-0.9-2.9-1.3-5.1-1.3C62.8,269,59.6,269.9,56.2,271.7z M73,284.2v-4.8
		c-1.1-0.4-2-0.5-2.9-0.5c-1.1,0-1.9,0.3-2.5,0.8s-1,1.3-1,2.2c0,0.9,0.3,1.7,1,2.3c0.7,0.6,1.6,0.9,2.6,0.9
		C71.3,285.2,72.2,284.8,73,284.2z"/>
	<path class="st9" d="M114.3,257.7v4.3c2.8-3,6.3-4.6,10.5-4.6c5,0,8.6,2,11,5.9c1.9-2,3.9-3.5,5.8-4.5c2-0.9,4.2-1.4,6.6-1.4
		c3.7,0,6.6,1.1,8.7,3.4c2.1,2.3,3.2,5.5,3.2,9.6v21.4h-16.5v-20.4c0-1.2-0.3-2.1-0.9-2.8s-1.4-1-2.3-1c-1.1,0-2.1,0.4-3.2,1.1v23.1
		h-16.5v-20.4c0-1.2-0.3-2.1-0.9-2.8c-0.6-0.7-1.4-1-2.4-1c-1,0-2.1,0.4-3.2,1.2v23H96.8v-34.1H114.3z"/>
	<path class="st9" d="M201.5,278.8v6c-3.8,5-9.3,7.5-16.5,7.5c-5.9,0-10.7-1.6-14.3-4.9c-3.6-3.3-5.4-7.6-5.4-13
		c0-5.1,1.7-9.3,5-12.5s7.6-4.8,12.9-4.8c2.7,0,5.2,0.5,7.5,1.4c2.3,0.9,4.3,2.2,6,4c1.7,1.8,2.9,3.8,3.7,6.1
		c0.8,2.3,1.2,5.2,1.2,8.5h-17.9c0.6,1.7,1.7,3.1,3.2,4.1c1.5,1,3.2,1.5,5.2,1.5C195.9,282.5,199.1,281.2,201.5,278.8z M182.6,270.9
		h8.2c-0.1-1.7-0.5-3-1.3-4c-0.8-1-1.8-1.4-3-1.4c-1.1,0-2,0.5-2.8,1.4C183,267.8,182.6,269.2,182.6,270.9z"/>
	<path class="st9" d="M247.7,292.5c-6.2,0-11.4-2.2-15.7-6.5c-4.3-4.3-6.4-9.6-6.4-15.8c0-6.2,2.1-11.5,6.4-15.8
		c4.3-4.3,9.5-6.5,15.7-6.5c6.2,0,11.4,2.2,15.7,6.5c4.3,4.3,6.4,9.6,6.4,15.8c0,6.2-2.1,11.5-6.4,15.8
		C259.1,290.3,253.9,292.5,247.7,292.5z M247.7,264.4c-1.2,0-2.2,0.4-3.1,1.3c-0.8,0.9-1.2,1.9-1.2,3.2c0,1.3,0.4,2.4,1.2,3.2
		s1.8,1.3,3.1,1.3c1.2,0,2.3-0.4,3.1-1.3s1.2-1.9,1.2-3.2c0-1.3-0.4-2.4-1.2-3.2C249.9,264.9,248.9,264.4,247.7,264.4z"/>
	<path class="st9" d="M272.3,257.7h17.5l3.8,8.7l3.7-8.7h17.5L300,291.8h-12.9L272.3,257.7z"/>
	<path class="st9" d="M350.2,278.8v6c-3.8,5-9.3,7.5-16.5,7.5c-5.9,0-10.7-1.6-14.3-4.9c-3.6-3.3-5.4-7.6-5.4-13
		c0-5.1,1.7-9.3,5-12.5s7.6-4.8,12.9-4.8c2.7,0,5.2,0.5,7.5,1.4c2.3,0.9,4.3,2.2,6,4c1.7,1.8,2.9,3.8,3.7,6.1
		c0.8,2.3,1.2,5.2,1.2,8.5h-17.9c0.6,1.7,1.7,3.1,3.2,4.1c1.5,1,3.2,1.5,5.2,1.5C344.6,282.5,347.8,281.2,350.2,278.8z M331.2,270.9
		h8.2c-0.1-1.7-0.5-3-1.3-4c-0.8-1-1.8-1.4-3-1.4c-1.1,0-2,0.5-2.8,1.4C331.6,267.8,331.2,269.2,331.2,270.9z"/>
	<path class="st9" d="M373.1,265.1c2.2-5.2,5.5-7.8,9.7-7.8c2.4,0,4.3,0.8,5.8,2.3c1.5,1.5,2.3,3.5,2.3,5.9c0,2.5-0.8,4.5-2.3,6
		c-1.5,1.5-3.5,2.3-5.9,2.3c-2.8,0-5.1-1-7.1-3.1c-1.7,1.5-2.6,4.2-2.6,8.2v12.7h-17.5v-34.1h17.5V265.1z"/>
</g>
</svg>
