<svg width="115" height="88" viewBox="0 0 115 88" fill="none" xmlns="http://www.w3.org/2000/svg">
<path d="M11.5062 55.664C11.5062 57.9156 11.944 60.1047 12.6945 62.1062C15.2589 68.9237 21.8887 73.7396 29.5818 73.7396C37.4625 73.7396 44.2174 68.6735 46.6567 61.6058C61.2924 62.6691 69.6109 56.1018 73.1134 43.6553C81.8698 41.2786 88.312 33.2727 88.312 23.7033C88.312 17.5113 85.6225 12.0073 81.3069 8.19201C77.6793 4.93964 72.8633 3.00073 67.6094 3.00073C61.6051 3.00073 56.1636 5.5651 52.4109 9.6931C49.8465 8.00437 46.8443 7.06619 43.592 7.06619C41.3403 7.06619 39.1513 7.56655 37.2123 8.37964C31.5207 10.8189 27.5178 16.448 27.4553 23.0153C27.4553 23.0778 27.4553 23.1404 27.4553 23.2655C27.4553 23.328 27.4553 23.4531 27.4553 23.5156C26.6422 23.328 25.7665 23.2655 24.8909 23.2655C20.9505 23.2655 17.448 25.1418 15.2589 28.0815C13.7578 30.0829 12.8196 32.6473 12.8196 35.3367C12.8196 38.2764 13.8829 40.9658 15.6342 43.0924C15.7593 43.28 15.8843 43.4051 16.072 43.5927C13.2574 46.7826 11.5062 51.0356 11.5062 55.664Z" fill="#FFB3B3"/>
<g opacity="0.3">
<g opacity="0.3">
<path opacity="0.3" d="M12.6945 62.1062C15.2589 68.9237 21.8887 73.7397 29.5818 73.7397C37.4625 73.7397 44.2174 68.6735 46.6567 61.6058C61.2923 62.6691 69.6109 56.1018 73.1134 43.6553C81.8698 41.2786 88.312 33.2727 88.312 23.7033C88.312 17.5113 85.6225 12.0073 81.3069 8.19202C83.3083 13.3207 77.1164 20.0131 69.048 15.76C69.048 15.76 68.8603 15.1346 68.36 14.5091C67.4843 13.3833 65.7956 13.8211 65.4829 15.1971C64.6698 19.2 60.0414 21.0138 57.5396 13.696L54.4123 11.1942C57.7273 20.576 51.16 24.1411 44.5302 21.8895C43.9672 21.7018 43.4669 22.2647 43.7171 22.8277C47.0945 30.3331 40.2771 39.7775 29.2691 36.6502C33.0218 44.4058 30.7702 54.1629 20.7629 51.8488C20.3251 51.7237 20.0123 52.2866 20.3251 52.5993C21.3883 53.5375 23.4523 54.8509 27.0174 55.0386C31.9585 63.7949 24.9534 75.9913 12.6945 62.1062C12.6945 62.0437 12.6945 62.0437 12.6945 62.1062Z" fill="#A61162"/>
</g>
</g>
<path d="M29.6443 74.8029C19.0742 74.8029 10.5054 66.2342 10.5054 55.664C10.5054 51.2858 12.0065 47.0327 14.7585 43.6553C12.8822 41.3411 11.8814 38.4015 11.8814 35.3993C11.8814 28.144 17.7607 22.2647 25.016 22.2647C25.5163 22.2647 26.0167 22.2647 26.5171 22.3273C27.0174 13.2582 34.5229 6.06546 43.7171 6.06546C46.7818 6.06546 49.7214 6.87854 52.3483 8.37964C56.4138 4.31418 61.9803 2 67.7345 2C79.7433 2 89.5004 11.7571 89.5004 23.7658C89.5004 33.3353 83.1833 41.8415 74.0516 44.5935C70.2364 57.4153 61.3549 63.5447 47.4698 62.7942C44.5302 69.9869 37.4625 74.8029 29.6443 74.8029ZM24.9534 24.3913C18.8865 24.3913 13.9454 29.3324 13.9454 35.3993C13.9454 38.2138 15.0087 40.8407 16.8851 42.9047C17.2603 43.3426 17.2603 43.968 16.8851 44.3433C14.0705 47.4706 12.5694 51.4735 12.5694 55.664C12.5694 65.0458 20.2 72.6764 29.5818 72.6764C36.8371 72.6764 43.2793 68.1106 45.656 61.2306C45.8436 60.7927 46.2814 60.48 46.7192 60.5426C60.2916 61.5433 68.5476 55.9142 72.0502 43.4051C72.1753 43.0298 72.4254 42.7796 72.8007 42.6546C81.3069 40.3404 87.2487 32.5847 87.2487 23.7658C87.2487 12.9455 78.4923 4.18909 67.672 4.18909C62.2305 4.18909 56.9767 6.50327 53.2865 10.5062C52.9113 10.8815 52.3483 10.944 51.9105 10.6938C49.4713 9.06764 46.5942 8.25455 43.6545 8.25455C35.336 8.25455 28.5811 15.0095 28.5811 23.328C28.5811 23.3905 28.5811 23.5156 28.5811 23.5782C28.5811 23.5782 28.5811 23.5782 28.5811 23.6407C28.5811 23.9535 28.456 24.2662 28.2058 24.4538C27.9556 24.6415 27.6429 24.7665 27.3302 24.6415C26.5171 24.4538 25.7665 24.3913 24.9534 24.3913Z" fill="#A61162"/>
<path d="M29.2065 56.8525C27.7054 56.8525 26.2043 56.6649 24.7658 56.3521C24.2029 56.227 23.8276 55.6641 23.9527 55.1012C24.0778 54.5383 24.6407 54.1631 25.2036 54.2881C26.5171 54.6009 27.8305 54.726 29.2065 54.726C39.6516 54.726 48.0952 46.2198 48.0952 35.8372C48.0952 31.0838 46.344 26.518 43.0916 23.0154C42.7163 22.5776 42.7163 21.8896 43.1541 21.5143C43.592 21.139 44.28 21.1391 44.6552 21.5769C48.2203 25.4547 50.2218 30.5209 50.2218 35.8372C50.2218 47.4081 40.7774 56.8525 29.2065 56.8525Z" fill="#A61162"/>
<path d="M54.7251 29.8327C54.1622 29.8327 53.6618 29.3324 53.6618 28.7695C53.6618 28.2066 54.1622 27.7062 54.7251 27.7062C61.4174 27.7062 67.0465 22.4524 67.4844 15.8226C67.5469 15.2596 68.0473 14.7593 68.6102 14.8218C69.1731 14.8844 69.6734 15.3847 69.6109 15.9476C69.1105 23.7033 62.5433 29.8327 54.7251 29.8327Z" fill="#A61162"/>
<path d="M32.6465 27.1433C32.3963 27.1433 32.1462 27.0807 31.9585 26.8931C30.5825 25.7673 29.0189 25.0167 27.2676 24.6414C26.7047 24.5164 26.3294 23.9534 26.4545 23.3905C26.5796 22.8276 27.1425 22.4524 27.7054 22.5774C29.7694 23.0153 31.7083 23.9534 33.272 25.2669C33.7098 25.6422 33.7723 26.3302 33.3971 26.768C33.272 27.0182 32.9592 27.1433 32.6465 27.1433Z" fill="#A61162"/>
<path d="M58.04 16.886C57.6647 16.886 57.2895 16.6983 57.1018 16.323C55.9135 14.0089 54.0996 12.07 51.9731 10.6314C51.4727 10.3187 51.3476 9.63068 51.6604 9.13032C51.9731 8.62995 52.6611 8.50486 53.1615 8.81759C55.6633 10.4438 57.6647 12.6954 59.0407 15.3223C59.2909 15.8227 59.1033 16.5107 58.6029 16.7609C58.3527 16.886 58.1651 16.886 58.04 16.886Z" fill="#A61162"/>
<path d="M16.1346 44.6559C15.8844 44.6559 15.5717 44.5308 15.384 44.3432C14.9462 43.9054 14.9462 43.2799 15.384 42.8421C15.4466 42.7796 16.8851 41.341 18.824 39.7774C19.2618 39.4021 19.9498 39.4647 20.3251 39.965C20.7004 40.4028 20.6378 41.0908 20.1375 41.4661C18.3237 42.9047 16.9477 44.3432 16.9477 44.3432C16.6975 44.5934 16.3848 44.6559 16.1346 44.6559Z" fill="#A61162"/>
<path d="M33.3345 39.9025C33.0843 39.9025 32.8967 39.8399 32.7091 39.7148C31.5207 38.8392 30.0821 38.3388 28.581 38.3388C28.1432 38.3388 27.768 38.4014 27.3301 38.4639C26.7672 38.589 26.2043 38.1512 26.0792 37.5883C25.9541 37.0254 26.392 36.4625 26.9549 36.3374C27.4552 36.2123 28.0181 36.2123 28.581 36.2123C30.52 36.2123 32.3963 36.8377 33.96 38.0261C34.4603 38.4014 34.5229 39.0268 34.2101 39.5272C33.96 39.7774 33.6472 39.9025 33.3345 39.9025Z" fill="#A61162"/>
<g opacity="0.3">
<g opacity="0.3">
<path opacity="0.3" d="M12.8822 35.3993C12.8822 38.339 13.9455 41.0284 15.6967 43.155L20.0124 40.4655C20.5753 40.0902 20.5128 39.2771 19.9498 39.0269C13.2575 35.5869 15.3215 28.144 15.3215 28.144C13.7578 30.083 12.8822 32.6473 12.8822 35.3993Z" fill="#A61162"/>
</g>
</g>
<g opacity="0.3">
<g opacity="0.3">
<path opacity="0.3" d="M27.5178 23.0779C29.7069 23.7033 31.8959 25.0168 33.397 26.0175C33.8974 26.3928 34.5854 25.8299 34.3978 25.2669C31.7709 17.6989 34.0225 12.8204 37.8378 8.81749L37.2749 8.50476C31.5832 10.8815 27.5803 16.5106 27.5178 23.0779Z" fill="#A61162"/>
</g>
</g>
<g opacity="0.6">
<g opacity="0.6">
<path opacity="0.6" d="M39.1513 12.8829C39.1513 14.6342 41.3404 13.5084 43.9673 13.5084C46.5942 13.5084 48.7833 14.6342 48.7833 12.8829C48.7833 11.1317 46.5942 9.69312 43.9673 9.69312C41.3404 9.69312 39.1513 11.1317 39.1513 12.8829Z" fill="white"/>
</g>
</g>
<g opacity="0.6">
<g opacity="0.6">
<path opacity="0.6" d="M20.1375 30.5208C20.1375 32.272 22.3266 31.1462 24.9535 31.1462C27.643 31.1462 29.7695 32.272 29.7695 30.5208C29.7695 28.7695 27.5804 27.3309 24.9535 27.3309C22.2641 27.3309 20.1375 28.7695 20.1375 30.5208Z" fill="white"/>
</g>
</g>
<g opacity="0.6">
<g opacity="0.6">
<path opacity="0.6" d="M24.6408 63.8576C25.7041 62.4816 23.2648 62.0438 21.1382 60.4801C19.0117 58.8539 17.9484 56.6648 16.8851 58.1034C15.8219 59.4794 16.6975 61.9187 18.8241 63.5448C21.0131 65.0459 23.5775 65.2336 24.6408 63.8576Z" fill="white"/>
</g>
</g>
<g opacity="0.6">
<g opacity="0.6">
<path opacity="0.6" d="M66.8588 8.31704C66.3585 10.0058 69.1105 9.63049 72.1752 10.5687C75.2399 11.4443 77.3665 13.2581 77.8668 11.632C78.3672 9.94322 76.3032 7.87922 73.301 6.94104C70.1737 6.00286 67.3592 6.62831 66.8588 8.31704Z" fill="white"/>
</g>
</g>
<path d="M64.2318 9.08846C64.8913 8.42898 64.9705 7.43895 64.4087 6.87717C63.847 6.31539 62.8569 6.39459 62.1975 7.05407C61.538 7.71355 61.4588 8.70358 62.0206 9.26536C62.5823 9.82714 63.5724 9.74794 64.2318 9.08846Z" fill="white"/>
<g opacity="0.6">
<g opacity="0.6">
<path opacity="0.6" d="M25.0772 49.3635C26.7043 48.6882 27.6261 47.1839 27.1363 46.0035C26.6464 44.823 24.9302 44.4135 23.3031 45.0887C21.676 45.764 20.7541 47.2683 21.244 48.4488C21.7339 49.6292 23.4501 50.0388 25.0772 49.3635Z" fill="white"/>
</g>
</g>
<path d="M3 50.2852V2.87573H23.3898L31.9585 12.7579L40.5898 2.87573H60.9171V50.2852H39.9018V26.5179L31.9585 35.7121L24.0153 26.5179V50.2852H3Z" fill="#17C3B2" stroke="#227C9D" stroke-width="5.0882" stroke-miterlimit="10"/>
<path d="M70.0487 77.4923C69.9236 77.4923 69.736 77.4297 69.6109 77.3672C69.048 77.117 68.8604 76.4916 69.1106 75.9286C69.8611 74.365 70.2989 72.7388 70.4866 71.0501C70.5491 70.4872 71.112 70.0494 71.6749 70.1119C72.2378 70.1745 72.6757 70.7374 72.6131 71.3003C72.4255 73.2392 71.8626 75.1156 70.9869 76.9294C70.8618 77.2421 70.4866 77.4923 70.0487 77.4923Z" fill="#A61162"/>
<path d="M34.5855 63.8576C33.96 65.6088 33.6473 67.4852 33.6473 69.3616C33.6473 79.0561 42.1535 86.9369 52.6611 86.9369C60.4793 86.9369 67.1717 82.6212 70.0488 76.4292C72.488 78.0554 75.3651 79.0561 78.4924 79.0561C85.4975 79.0561 91.3768 74.2401 93.2531 67.6728C94.5666 67.9856 95.88 68.1732 97.3186 68.1732C106.45 68.1732 113.831 60.7928 113.831 51.6612C113.831 44.6561 109.452 38.6518 103.323 36.275C103.573 35.2743 103.698 34.211 103.698 33.1478C103.698 24.8918 96.0051 18.1368 86.4982 18.1368C81.0568 18.1368 76.1782 20.3259 73.051 23.8285C70.5491 22.4525 67.6095 21.7019 64.4822 21.7019C54.8502 21.7019 47.032 29.1448 47.032 38.339C47.032 38.5267 47.032 38.7768 47.032 38.9645C39.0888 40.403 33.0844 47.7208 33.0844 56.4772C33.0844 59.0416 33.5848 61.6059 34.5855 63.8576Z" fill="#FFB3B3"/>
<g opacity="0.3">
<g opacity="0.3">
<path opacity="0.3" d="M49.1586 56.7274C57.227 63.5448 71.4874 60.4176 70.0488 45.5317L71.7376 51.8488C76.491 52.2241 77.3667 55.7892 77.4917 59.9797L79.5557 62.8568C79.5557 62.8568 74.9274 58.8539 66.2336 62.5441C57.6023 66.2343 55.1005 67.4852 53.2241 71.1754L52.0983 70.9252C47.4699 66.2343 44.4052 61.5434 47.1572 57.0401C47.6576 56.3521 48.5332 56.227 49.1586 56.7274Z" fill="#A61162"/>
</g>
</g>
<g opacity="0.3">
<g opacity="0.3">
<path opacity="0.3" d="M86.248 49.6597C78.7426 49.0968 73.0509 43.5303 77.8044 39.4023C83.9338 40.9659 85.56 37.651 85.56 37.651C89.3127 32.2721 94.1913 32.7099 99.3826 35.1492C90.2509 36.1499 88.312 48.4088 96.8808 50.5354C96.5055 50.723 90.2509 52.4117 90.2509 52.4117L87.6866 50.5354" fill="#A61162"/>
</g>
</g>
<g opacity="0.3">
<g opacity="0.3">
<path opacity="0.3" d="M55.288 24.0785C50.9724 30.9585 50.8473 36.9629 58.7905 41.2159C55.2254 39.4021 51.5978 38.1512 47.6574 38.4639C46.7818 31.709 50.3469 27.4559 55.288 24.0785Z" fill="#A61162"/>
</g>
</g>
<g opacity="0.3">
<g opacity="0.3">
<path opacity="0.3" d="M85.6851 18.0743C80.6189 20.3885 77.1789 23.2031 78.4924 27.7063L74.3018 23.5158L77.8044 20.7638L80.2436 19.4503" fill="#A61162"/>
</g>
</g>
<g opacity="0.3">
<g opacity="0.3">
<path opacity="0.3" d="M34.2102 63.8575C32.7717 56.9149 33.5222 51.1607 36.024 46.3447C34.7731 52.5367 35.5237 56.352 39.7768 55.7891L37.0248 58.8538" fill="#A61162"/>
</g>
</g>
<g opacity="0.3">
<g opacity="0.3">
<path opacity="0.3" d="M33.6472 69.3613C33.6472 79.0559 42.1534 86.9366 52.661 86.9366C60.4792 86.9366 67.1716 82.621 70.0487 76.429C72.4879 78.0552 75.365 79.0559 78.4923 79.0559C85.4974 79.0559 91.3767 74.2399 93.253 67.6726C95.0669 68.1104 97.0683 68.2981 99.0698 68.0479C107.576 67.1723 113.893 60.0421 113.831 51.5359C113.831 50.5977 113.768 49.7221 113.58 48.8464C112.267 56.6646 105.449 62.6064 97.256 62.6064C95.88 62.6064 94.504 62.4188 93.1905 62.1061C91.3141 68.6734 85.4349 73.4894 78.4298 73.4894C75.9905 73.4894 73.6763 72.9264 71.6123 71.8632C70.7367 71.4253 69.6109 71.6755 69.048 72.5512C65.7956 77.805 59.6036 81.3701 52.5359 81.3701C43.029 81.3701 35.2109 74.9904 33.7723 66.5468C33.7098 67.485 33.6472 68.4232 33.6472 69.3613Z" fill="#A61162"/>
</g>
</g>
<path d="M34.5854 64.9208C34.4603 64.9208 34.3352 64.9208 34.2101 64.8582C33.6472 64.6706 33.3345 64.0451 33.5847 63.4822C34.8356 60.0422 37.0872 57.04 40.152 54.7884C40.6523 54.4131 41.2778 54.5382 41.6531 55.0386C42.0283 55.5389 41.9032 56.1644 41.4029 56.5397C38.7134 58.5411 36.712 61.168 35.5861 64.2328C35.4611 64.608 35.0232 64.9208 34.5854 64.9208Z" fill="#A61162"/>
<path d="M93.2531 68.6735C93.128 68.6735 93.0655 68.6735 92.9404 68.6109C92.3775 68.4233 92.0648 67.8604 92.1899 67.2974C92.5651 65.984 92.7528 64.608 92.7528 63.1695C92.7528 57.5404 89.688 52.4742 84.747 49.9724C84.2466 49.7222 83.9964 49.0342 84.2466 48.5338C84.4968 48.0334 85.1848 47.7833 85.6851 48.0335C91.3142 50.9105 94.8793 56.6647 94.8793 63.1695C94.8793 64.7331 94.6917 66.3593 94.2539 67.8604C94.1288 68.3607 93.6909 68.6735 93.2531 68.6735Z" fill="#A61162"/>
<path d="M103.26 37.2757C103.135 37.2757 103.01 37.2757 102.885 37.2132C101.572 36.7128 100.258 36.4001 98.8821 36.2125C98.3192 36.1499 97.8814 35.6496 97.9439 35.0241C98.0065 34.4612 98.5069 34.0234 99.1323 34.0859C100.696 34.2736 102.26 34.6488 103.698 35.2117C104.261 35.3994 104.511 36.0248 104.324 36.5877C104.073 36.963 103.698 37.2757 103.26 37.2757Z" fill="#A61162"/>
<path d="M72.9884 24.8292C72.7382 24.8292 72.4255 24.7041 72.2378 24.5165C71.8 24.0786 71.8 23.3906 72.2378 23.0154C72.6757 22.5776 73.3637 22.5776 73.7389 23.0154C74.1768 23.4532 74.1768 24.1412 73.7389 24.5165C73.5513 24.7041 73.2386 24.8292 72.9884 24.8292Z" fill="#A61162"/>
<path d="M78.4923 29.4575C78.1796 29.4575 77.8669 29.3324 77.6167 29.0197C76.2407 27.2684 74.4894 25.7673 72.488 24.6415C71.9876 24.3288 71.8 23.7033 72.0502 23.2029C72.3629 22.7026 72.9883 22.5149 73.4887 22.7651C75.7403 24.016 77.8043 25.7048 79.3054 27.7062C79.6807 28.2066 79.5556 28.832 79.1178 29.2073C78.9302 29.3949 78.7425 29.4575 78.4923 29.4575Z" fill="#A61162"/>
<path d="M52.6611 88C41.5906 88 32.584 79.6189 32.584 69.3615C32.584 67.4851 32.8968 65.6087 33.4597 63.8575C32.5215 61.5433 32.0211 59.0415 32.0211 56.4145C32.0211 47.5331 37.8378 39.9651 45.9688 38.0262C46.0938 28.3316 54.3499 20.5135 64.4822 20.5135C67.3593 20.5135 70.2364 21.1389 72.8008 22.3898C76.3033 18.9498 81.2444 16.9484 86.4982 16.9484C96.568 16.9484 104.761 24.1411 104.761 33.0225C104.761 33.8356 104.699 34.6487 104.574 35.4618C107.451 36.7753 109.953 38.8393 111.829 41.4662C113.893 44.4058 114.956 47.9084 114.956 51.536C114.956 61.2305 107.076 69.1738 97.3186 69.1738C96.1928 69.1738 95.1295 69.0487 94.0037 68.8611C91.6895 75.4909 85.4975 80.0567 78.5549 80.0567C75.7404 80.0567 72.9884 79.3062 70.5491 77.9302C67.0466 84.0596 60.1666 88 52.6611 88ZM64.4197 22.7025C55.4131 22.7025 48.0953 29.7076 48.0953 38.2764C48.0953 38.5265 48.0953 38.7142 48.0953 38.8393C48.0953 39.4022 47.72 39.84 47.2197 39.9651C39.6517 41.3411 34.1477 48.2836 34.1477 56.4145C34.1477 58.8538 34.648 61.168 35.5862 63.3571C35.7113 63.6073 35.7113 63.92 35.5862 64.1702C34.9608 65.8589 34.7106 67.5476 34.7106 69.3615C34.7106 78.4305 42.7789 85.8735 52.6611 85.8735C59.7913 85.8735 66.2335 81.9956 69.1106 75.9913C69.2357 75.6786 69.4859 75.4909 69.7986 75.4284C70.1113 75.3658 70.424 75.4284 70.6742 75.5535C72.9884 77.1171 75.7404 77.9927 78.4924 77.9927C84.8095 77.9927 90.4386 73.6146 92.1899 67.36C92.3775 66.7971 92.9404 66.4844 93.5033 66.6095C94.7542 66.9222 96.0051 67.0473 97.256 67.0473C105.762 67.0473 112.705 60.1047 112.705 51.5985C112.705 45.1564 108.827 39.5273 102.823 37.2131C102.322 37.0255 102.072 36.4625 102.197 35.9622C102.447 35.024 102.51 34.0858 102.51 33.0851C102.51 25.392 95.2546 19.1375 86.3731 19.1375C81.432 19.1375 76.8037 21.0764 73.6764 24.4538C73.3637 24.8291 72.8008 24.8916 72.3629 24.704C70.0488 23.3905 67.2342 22.7025 64.4197 22.7025Z" fill="#A61162"/>
<path d="M61.9178 44.9062C61.6051 44.9062 61.3549 44.7812 61.1673 44.5935C58.1651 41.4662 54.2247 39.715 49.9716 39.715C49.0335 39.715 48.1578 39.7775 47.2196 39.9651C46.6567 40.0902 46.0938 39.715 45.9687 39.0895C45.8436 38.5266 46.2189 37.9637 46.8444 37.8386C47.8451 37.651 48.9084 37.5259 49.9716 37.5259C54.7876 37.5259 59.2909 39.4648 62.6684 43.0924C63.1062 43.5302 63.0436 44.2182 62.6058 44.5935C62.4182 44.8437 62.168 44.9062 61.9178 44.9062Z" fill="#A61162"/>
<path d="M58.4152 65.8589C54.0996 65.8589 50.0341 63.92 47.2821 60.5425C46.9069 60.1047 46.9694 59.4167 47.4698 59.0414C47.9076 58.6662 48.5956 58.7287 48.9709 59.2291C51.285 62.1062 54.7251 63.7949 58.4152 63.7949C65.0451 63.7949 70.4865 58.3534 70.4865 51.7236C70.4865 48.9716 69.5483 46.2196 67.7345 44.0931C67.3592 43.6553 67.4218 42.9673 67.8596 42.592C68.2974 42.2167 68.9854 42.2793 69.3607 42.7171C71.4247 45.2189 72.5505 48.4713 72.5505 51.7236C72.613 59.4793 66.2334 65.8589 58.4152 65.8589Z" fill="#A61162"/>
<path d="M52.5985 72.3637C52.0356 72.3637 51.5353 71.8633 51.5353 71.3004C51.5353 68.611 52.2233 65.984 53.4742 63.6699C53.7869 63.1695 54.4124 62.9819 54.9127 63.232C55.4131 63.5448 55.6007 64.1702 55.3505 64.6706C54.2873 66.672 53.6618 68.9862 53.6618 71.3004C53.6618 71.8633 53.1615 72.3637 52.5985 72.3637Z" fill="#A61162"/>
<path d="M80.056 63.9826C79.6807 63.9826 79.368 63.795 79.1803 63.4823C77.1163 60.4175 73.9891 58.3535 70.3614 57.603C69.7985 57.4779 69.4232 56.915 69.5483 56.3521C69.6734 55.7892 70.2363 55.4139 70.7992 55.539C74.9898 56.3521 78.5549 58.7914 80.9316 62.2939C81.2443 62.7943 81.1193 63.4823 80.6189 63.795C80.4938 63.9201 80.3062 63.9826 80.056 63.9826Z" fill="#A61162"/>
<path d="M90.2509 54.1629C89.9382 54.1629 89.5629 53.9753 89.3753 53.7251C89.0625 53.2247 89.1876 52.5367 89.6254 52.224C92.1898 50.4727 95.192 49.5345 98.2567 49.5345C100.196 49.5345 102.072 49.9098 103.886 50.5978C104.449 50.7855 104.699 51.4109 104.511 51.9738C104.324 52.5367 103.698 52.7869 103.135 52.5993C101.572 51.9738 99.9454 51.6611 98.3193 51.6611C95.6298 51.6611 93.0654 52.4742 90.8763 53.9753C90.6887 54.1004 90.4385 54.1629 90.2509 54.1629Z" fill="#A61162"/>
<path d="M79.3055 40.9658C78.2422 40.9658 77.1789 40.8407 76.1782 40.528C75.6153 40.3404 75.3026 39.7775 75.4276 39.2146C75.6153 38.6516 76.1782 38.3389 76.7411 38.464C77.5542 38.7142 78.4298 38.8393 79.2429 38.8393C81.5571 38.8393 83.8087 37.9636 85.4349 36.3375C85.8727 35.8996 86.5607 35.9622 86.936 36.3375C87.3738 36.7753 87.3113 37.4633 86.936 37.8386C84.9346 39.84 82.1826 40.9658 79.3055 40.9658Z" fill="#A61162"/>
<g opacity="0.6">
<g opacity="0.6">
<path opacity="0.6" d="M58.728 30.0204C58.728 32.4597 62.3557 30.2706 66.296 30.2706C70.2364 30.2706 72.9258 32.4597 72.9258 30.0204C72.9258 27.5812 69.736 25.5797 65.7957 25.5797C61.9178 25.5797 58.728 27.5186 58.728 30.0204Z" fill="white"/>
</g>
</g>
<g opacity="0.6">
<g opacity="0.6">
<path opacity="0.6" d="M43.9672 45.344C43.9672 47.408 46.1563 45.344 49.1585 45.344C52.1607 45.344 54.8501 47.408 54.8501 45.344C54.8501 43.28 52.4109 41.5287 49.4087 41.5287C46.4065 41.5912 43.9672 43.28 43.9672 45.344Z" fill="white"/>
</g>
</g>
<g opacity="0.6">
<g opacity="0.6">
<path opacity="0.6" d="M56.664 76.4917C57.2269 74.4902 53.9745 75.6786 50.2844 74.6153C46.5942 73.552 43.8422 70.5498 43.2793 72.5513C42.7163 74.5528 45.2182 77.0546 48.9083 78.1804C52.5985 79.3062 56.0385 78.4931 56.664 76.4917Z" fill="white"/>
</g>
</g>
<g opacity="0.6">
<g opacity="0.6">
<path opacity="0.6" d="M100.071 42.1541C98.6946 43.7177 101.697 43.6552 103.886 45.6567C106.075 47.6581 106.7 51.0356 108.076 49.4719C109.452 47.9083 108.827 45.0312 106.638 43.0297C104.449 40.9657 101.509 40.5905 100.071 42.1541Z" fill="white"/>
</g>
</g>
<g opacity="0.6">
<g opacity="0.6">
<path opacity="0.6" d="M92.3775 24.3915C91.1891 25.4547 93.0029 26.518 94.6291 28.2693C96.2553 30.0831 97.1309 31.9594 98.3193 30.8962C99.5076 29.8329 99.1324 27.5187 97.4436 25.7049C95.8175 23.9536 93.5033 23.3282 92.3775 24.3915Z" fill="white"/>
</g>
</g>
<g opacity="0.6">
<g opacity="0.6">
<path opacity="0.6" d="M90.7355 22.9535C90.9211 22.1455 90.1164 21.2711 88.9381 21.0004C87.7598 20.7297 86.6541 21.1652 86.4685 21.9732C86.2829 22.7812 87.0876 23.6556 88.2659 23.9263C89.4442 24.197 90.5498 23.7614 90.7355 22.9535Z" fill="white"/>
</g>
</g>
<g opacity="0.6">
<g opacity="0.6">
<path opacity="0.6" d="M41.8643 49.1945C42.5495 48.3716 42.6101 47.2925 41.9996 46.7841C41.3892 46.2757 40.3388 46.5306 39.6535 47.3534C38.9683 48.1762 38.9077 49.2554 39.5182 49.7638C40.1287 50.2722 41.1791 50.0173 41.8643 49.1945Z" fill="white"/>
</g>
</g>
<g opacity="0.6">
<g opacity="0.6">
<path opacity="0.6" d="M82.8706 55.9768C81.9949 56.4772 83.1208 57.1026 83.8713 58.6663C84.6219 60.2299 84.5593 61.9186 85.4975 61.731C87.3113 61.3557 87.624 59.1666 86.8735 57.603C86.1855 55.9768 84.4968 55.1012 82.8706 55.9768Z" fill="white"/>
</g>
</g>
</svg>
