<?xml version="1.0" encoding="utf-8"?>
<!-- Generator: Adobe Illustrator 24.0.1, SVG Export Plug-In . SVG Version: 6.00 Build 0)  -->
<svg version="1.1" id="Capa_1" xmlns="http://www.w3.org/2000/svg" xmlns:xlink="http://www.w3.org/1999/xlink" x="0px" y="0px"
	 viewBox="0 0 360 315" style="enable-background:new 0 0 360 315;" xml:space="preserve">
<style type="text/css">
	.st0{fill:#FFB3B3;}
	.st1{opacity:0.3;}
	.st2{fill:#A61162;}
	.st3{fill:none;stroke:#A61162;stroke-width:0.5782;stroke-miterlimit:10;}
	.st4{opacity:0.6;}
	.st5{fill:#FFFFFF;}
	.st6{fill:#17C3B2;stroke:#227C9D;stroke-width:5.9912;stroke-miterlimit:10;}
	.st7{display:none;}
	.st8{display:inline;}
	.st9{fill:#17C3B2;stroke:#227C9D;stroke-width:3.5324;stroke-miterlimit:10;}
	.st10{fill:#FFCB77;stroke:#FF8E78;stroke-width:2.58;stroke-miterlimit:10;}
</style>
<g>
	<g>
		<g>
			<g>
				<path class="st0" d="M88.3,116c0,4.3,0.8,8.3,2.2,12.1c4.9,12.8,17.3,22,31.8,22c14.9,0,27.5-9.6,32.2-22.9
					c27.5,2,43.2-10.3,49.8-33.7c16.5-4.5,28.7-19.6,28.7-37.5c0-11.6-5.1-22-13.1-29.1c-6.9-6.1-15.9-9.8-25.8-9.8
					c-11.3,0-21.5,4.8-28.6,12.6c-4.8-3.1-10.5-4.9-16.6-4.9c-4.3,0-8.4,0.9-12,2.5c-10.7,4.6-18.2,15.2-18.4,27.5
					c0,0.1,0,0.3,0,0.4c0,0.2,0,0.3,0,0.5v0c-1.6-0.3-3.2-0.5-4.8-0.5c-7.4,0-14,3.6-18.1,9h0c-2.9,3.8-4.6,8.6-4.6,13.7
					c0,5.6,2,10.6,5.3,14.6c0.3,0.3,0.5,0.6,0.8,0.9C91.5,99.4,88.3,107.3,88.3,116z"/>
			</g>
		</g>
		<g class="st1">
			<g>
				<path class="st2" d="M90.5,128.1c4.9,12.8,17.3,22,31.8,22c14.9,0,27.5-9.6,32.2-22.9c27.5,2,43.2-10.3,49.8-33.7
					c16.5-4.5,28.7-19.6,28.7-37.5c0-11.6-5.1-22-13.1-29.1c3.8,9.6-7.9,22.2-23.1,14.3c0,0-0.3-1.1-1.3-2.3
					c-1.6-2.1-4.9-1.3-5.4,1.3c-1.5,7.5-10.3,10.9-15-2.9l-5.9-4.7c6.2,17.7-6.1,24.4-18.6,20.1c-1.1-0.4-2.1,0.7-1.6,1.7
					c6.4,14.1-6.5,32-27.1,26c7.1,14.6,2.9,33-16,28.6c-0.9-0.2-1.4,0.9-0.8,1.4c2,1.8,5.9,4.2,12.7,4.5
					C126.7,131.3,113.5,154.4,90.5,128.1C90.5,128.1,90.5,128.1,90.5,128.1z"/>
			</g>
		</g>
		<g>
			<g>
				<path class="st2" d="M122.3,152.1c-19.9,0-36.1-16.2-36.1-36.1c0-8.3,2.8-16.3,8-22.7c-3.5-4.4-5.5-9.8-5.5-15.5
					c0-13.7,11.1-24.8,24.8-24.8c1,0,1.9,0.1,2.9,0.2c1-17,15.1-30.6,32.4-30.6c5.8,0,11.4,1.5,16.3,4.4c7.6-7.6,18.1-12,28.9-12
					c22.6,0,40.9,18.4,40.9,40.9c0,18-11.9,34-29,39.2c-7.1,24.1-24,35.6-50,34.2C150.4,143,137.1,152.1,122.3,152.1z M113.5,57.1
					c-11.4,0-20.7,9.3-20.7,20.7c0,5.3,2,10.3,5.6,14.1c0.7,0.8,0.7,1.9,0,2.7c-5.2,5.9-8.1,13.4-8.1,21.3c0,17.7,14.4,32,32,32
					c13.6,0,25.8-8.6,30.3-21.5c0.3-0.9,1.1-1.4,2.1-1.4c25.5,1.8,41.1-8.7,47.7-32.3c0.2-0.7,0.7-1.2,1.4-1.4
					c16-4.4,27.2-19,27.2-35.6c0-20.3-16.5-36.9-36.9-36.9c-10.3,0-20.2,4.3-27.1,11.9c-0.7,0.7-1.8,0.9-2.6,0.3
					c-4.6-3-10-4.6-15.5-4.6c-15.7,0-28.4,12.7-28.4,28.4c0,0.2,0,0.3,0,0.4c0,0,0,0,0,0.1c0,0.6-0.3,1.2-0.8,1.6
					c-0.5,0.4-1.1,0.5-1.7,0.4C116.5,57.3,115,57.1,113.5,57.1z"/>
			</g>
		</g>
		<g>
			<g>
				<path class="st2" d="M121.5,118.3c-2.8,0-5.7-0.3-8.4-0.9c-1.1-0.2-1.8-1.3-1.6-2.4c0.2-1.1,1.3-1.8,2.4-1.6
					c2.5,0.5,5,0.8,7.5,0.8c19.6,0,35.6-16,35.6-35.6c0-8.9-3.3-17.5-9.4-24.1c-0.8-0.8-0.7-2.1,0.1-2.9c0.8-0.8,2.1-0.7,2.9,0.1
					c6.7,7.3,10.5,16.9,10.5,26.8C161.1,100.5,143.3,118.3,121.5,118.3z"/>
			</g>
		</g>
		<g>
			<g>
				<path class="st2" d="M169.6,67.4c-1.1,0-2-0.9-2-2c0-1.1,0.9-2,2-2c12.6,0,23.2-9.8,24.1-22.4c0.1-1.1,1.1-2,2.2-1.9
					c1.1,0.1,2,1,1.9,2.2C196.6,55.9,184.3,67.4,169.6,67.4z"/>
			</g>
		</g>
		<g>
			<g>
				<path class="st2" d="M128,62.3c-0.5,0-0.9-0.2-1.3-0.5c-2.5-2.1-5.6-3.6-8.8-4.3c-1.1-0.2-1.8-1.3-1.6-2.4
					c0.2-1.1,1.3-1.8,2.4-1.6c3.8,0.8,7.5,2.6,10.5,5.1c0.9,0.7,1,2,0.3,2.8C129.2,62.1,128.6,62.3,128,62.3z"/>
			</g>
		</g>
		<g>
			<g>
				<path class="st2" d="M175.8,43.1c-0.7,0-1.4-0.4-1.8-1.1c-2.3-4.3-5.6-8-9.7-10.7c-0.9-0.6-1.2-1.9-0.6-2.8
					c0.6-0.9,1.9-1.2,2.8-0.6c4.7,3,8.5,7.3,11.1,12.2c0.5,1,0.1,2.2-0.9,2.7C176.4,43,176.1,43.1,175.8,43.1z"/>
			</g>
		</g>
		<g>
			<g>
				<path class="st2" d="M96.9,95.4c-0.5,0-1-0.2-1.4-0.6c-0.8-0.8-0.8-2.1-0.1-2.9c0.1-0.1,2.8-2.9,6.5-5.8
					c0.9-0.7,2.1-0.5,2.8,0.3c0.7,0.9,0.5,2.1-0.3,2.8c-3.5,2.7-6,5.4-6,5.4C98,95.2,97.4,95.4,96.9,95.4z"/>
			</g>
		</g>
		<g>
			<g>
				<path class="st2" d="M129.3,86.4c-0.4,0-0.8-0.1-1.2-0.4c-2.3-1.7-4.9-2.6-7.8-2.6c-0.8,0-1.6,0.1-2.3,0.2
					c-1.1,0.2-2.2-0.5-2.4-1.6c-0.2-1.1,0.5-2.2,1.6-2.4c1-0.2,2-0.3,3-0.3c3.7,0,7.2,1.2,10.2,3.4c0.9,0.7,1.1,1.9,0.4,2.8
					C130.5,86.1,129.9,86.4,129.3,86.4z"/>
			</g>
		</g>
		<g>
			<g>
				<path class="st3" d="M222,28.9"/>
			</g>
		</g>
		<g class="st1">
			<g>
				<path class="st2" d="M90.8,77.9c0,5.6,2,10.6,5.3,14.6l8.1-5.1c1-0.7,1-2.2-0.1-2.8c-12.6-6.5-8.7-20.5-8.7-20.5h0
					C92.5,68,90.8,72.7,90.8,77.9z"/>
			</g>
		</g>
		<g class="st1">
			<g>
				<path class="st2" d="M118.4,54.7c4.1,1.1,8.3,3.6,11.1,5.5c1,0.7,2.3-0.3,1.9-1.5c-4.9-14.2-0.7-23.4,6.5-31l-1.1-0.6
					C126,31.8,118.5,42.3,118.4,54.7z"/>
			</g>
		</g>
		<g class="st4">
			<g>
				<path class="st5" d="M140.2,35.6c0,3.3,4.1,1.2,9.1,1.2s9.1,2.1,9.1-1.2s-4.1-6-9.1-6S140.2,32.3,140.2,35.6z"/>
			</g>
		</g>
		<g class="st4">
			<g>
				<path class="st5" d="M104.4,68.7c0,3.3,4.1,1.2,9.1,1.2s9.1,2.1,9.1-1.2s-4.1-6-9.1-6S104.4,65.4,104.4,68.7z"/>
			</g>
		</g>
		<g class="st4">
			<g>
				<path class="st5" d="M112.9,131.4c2-2.6-2.5-3.4-6.6-6.4c-4-3-6-7.1-8-4.5c-2,2.6-0.3,7.2,3.7,10.2
					C106.1,133.8,111,134.1,112.9,131.4z"/>
			</g>
		</g>
		<g class="st4">
			<g>
				<path class="st5" d="M192.4,26.9c-0.9,3.2,4.3,2.5,10,4.2c5.7,1.7,9.7,5.1,10.7,1.9c0.9-3.2-2.9-7.1-8.7-8.8
					C198.7,22.6,193.3,23.8,192.4,26.9z"/>
			</g>
		</g>
		<g>
			<g>
				
					<ellipse transform="matrix(0.7071 -0.7071 0.7071 0.7071 35.6227 138.9875)" class="st5" cx="185.6" cy="26.5" rx="3.2" ry="2.7"/>
			</g>
		</g>
		<g class="st4">
			<g>
				
					<ellipse transform="matrix(0.9236 -0.3833 0.3833 0.9236 -29.849 50.6362)" class="st5" cx="112.1" cy="100.2" rx="6" ry="4.3"/>
			</g>
		</g>
		<path class="st6" d="M72.2,105.9V16.7h38.4l16.1,18.6l16.2-18.6h38.3v89.3h-39.6V61.2l-15,17.3l-15-17.3v44.7H72.2z"/>
		<g>
			<g>
				<g>
					<path class="st2" d="M198.4,157.1c-0.3,0-0.6-0.1-0.9-0.2c-1-0.5-1.4-1.7-1-2.7c1.4-2.9,2.3-6,2.6-9.2c0.1-1.1,1.1-1.9,2.2-1.8
						c1.1,0.1,1.9,1.1,1.8,2.2c-0.4,3.7-1.4,7.2-3,10.5C199.9,156.7,199.2,157.1,198.4,157.1z"/>
				</g>
			</g>
			<g>
				<g>
					<path class="st0" d="M131.7,131.4c-1.2,3.3-1.8,6.8-1.8,10.4c0,18.3,16,33.1,35.8,33.1c14.7,0,27.3-8.1,32.8-19.8
						c4.6,3.1,10,4.9,15.9,4.9c13.2,0,24.3-9.1,27.7-21.4c2.4,0.6,5,0.9,7.6,0.9c17.2,0,31.1-13.9,31.1-31.1
						c0-13.2-8.2-24.5-19.8-29c0.5-1.9,0.7-3.9,0.7-5.9c0-15.6-14.5-28.2-32.4-28.2c-10.3,0-19.4,4.2-25.3,10.7
						c-4.8-2.5-10.2-4-16.1-4c-18.1,0-32.8,14-32.8,31.4c0,0.4,0,0.8,0,1.2c-14.9,2.7-26.3,16.5-26.3,33
						C128.8,122.5,129.8,127.2,131.7,131.4z"/>
				</g>
			</g>
			<g class="st1">
				<g>
					<path class="st2" d="M159.1,118c15.2,12.8,42.1,6.9,39.4-21.1l3.2,11.9c8.9,0.7,10.7,7.4,10.8,15.3l3.9,5.5
						c0,0-8.8-7.6-25.1-0.6c-16.3,6.9-20.9,9.3-24.5,16.2l-2.1-0.5c-8.7-8.8-14.5-17.6-9.3-26.2C156.2,117.3,158,117.1,159.1,118z"
						/>
				</g>
			</g>
			<g class="st1">
				<g>
					<path class="st2" d="M229,104.7c-14.1-1.1-24.8-11.6-15.9-19.3c11.6,2.9,14.6-3.2,14.6-3.2c7.1-10.1,16.2-9.2,26-4.7
						c-17.2,1.9-20.8,25-4.7,29c-0.7,0.3-12.5,3.6-12.5,3.6l-4.8-3.6"/>
				</g>
			</g>
			<g class="st1">
				<g>
					<path class="st2" d="M170.6,56.6c-8.2,13-8.3,24.3,6.6,32.3c-6.7-3.5-13.6-5.8-21-5.2C154.7,70.9,161.3,63,170.6,56.6z"/>
				</g>
			</g>
			<g class="st1">
				<g>
					<path class="st2" d="M227.8,45.3c-9.5,4.3-16,9.7-13.5,18.1l-7.9-7.9l6.6-5.2l4.6-2.5"/>
				</g>
			</g>
			<g class="st1">
				<g>
					<path class="st2" d="M131,131.4c-2.7-13.1-1.3-23.9,3.4-32.9c-2.3,11.7-1,18.8,7.1,17.8l-5.2,5.7"/>
				</g>
			</g>
			<g class="st1">
				<g>
					<path class="st2" d="M129.9,141.8c0,18.3,16,33.1,35.8,33.1c14.7,0,27.3-8.1,32.8-19.8c4.6,3.1,10,4.9,15.9,4.9
						c13.2,0,24.3-9.1,27.7-21.4c3.4,0.9,7.1,1.2,10.9,0.8c16-1.7,27.9-15,27.8-31.1c0-1.7-0.2-3.4-0.4-5
						c-2.5,14.7-15.3,25.9-30.7,25.9c-2.6,0-5.2-0.3-7.6-0.9c-3.5,12.4-14.6,21.4-27.7,21.4c-4.6,0-8.9-1.1-12.8-3.1
						c-1.7-0.9-3.8-0.3-4.8,1.3c-6.2,9.9-17.8,16.6-31.1,16.6c-17.9,0-32.7-12.1-35.4-27.9C130,138.3,129.9,140.1,129.9,141.8z"/>
				</g>
			</g>
			<g>
				<g>
					<path class="st2" d="M131.7,133.4c-0.2,0-0.5,0-0.7-0.1c-1.1-0.4-1.6-1.5-1.2-2.6c2.3-6.4,6.6-12.1,12.3-16.3
						c0.9-0.7,2.2-0.5,2.8,0.4c0.7,0.9,0.5,2.2-0.4,2.8c-5.1,3.8-8.9,8.8-10.9,14.4C133.3,132.9,132.5,133.4,131.7,133.4z"/>
				</g>
			</g>
			<g>
				<g>
					<path class="st2" d="M242.1,140.6c-0.2,0-0.4,0-0.6-0.1c-1.1-0.3-1.7-1.4-1.4-2.5c0.7-2.5,1.1-5.1,1.1-7.7
						c0-10.6-5.8-20.2-15-24.9c-1-0.5-1.4-1.7-0.9-2.7c0.5-1,1.7-1.4,2.7-0.9c10.6,5.4,17.3,16.3,17.3,28.5c0,3-0.4,6-1.2,8.8
						C243.8,140,243,140.6,242.1,140.6z"/>
				</g>
			</g>
			<g>
				<g>
					<path class="st2" d="M261,81.4c-0.2,0-0.5,0-0.7-0.1c-2.4-0.9-5-1.6-7.6-1.8c-1.1-0.1-1.9-1.1-1.8-2.2c0.1-1.1,1.1-1.9,2.2-1.8
						c3,0.3,5.9,1,8.6,2.1c1,0.4,1.6,1.6,1.1,2.6C262.5,80.9,261.8,81.4,261,81.4z"/>
				</g>
			</g>
			<g>
				<g>
					<path class="st2" d="M203.9,58c-0.5,0-1-0.2-1.4-0.6c-0.8-0.8-0.8-2.1,0-2.9l0,0c0.8-0.8,2.1-0.8,2.9,0c0.8,0.8,0.8,2.1,0,2.9
						C205,57.8,204.5,58,203.9,58z"/>
				</g>
			</g>
			<g>
				<g>
					<path class="st2" d="M214.3,66.7c-0.6,0-1.2-0.3-1.6-0.8c-2.6-3.3-5.9-6.2-9.7-8.2c-1-0.5-1.3-1.8-0.8-2.7
						c0.5-1,1.8-1.3,2.7-0.8c4.3,2.3,8.1,5.5,11,9.3c0.7,0.9,0.5,2.2-0.4,2.8C215.2,66.6,214.7,66.7,214.3,66.7z"/>
				</g>
			</g>
			<g>
				<g>
					<path class="st2" d="M165.7,176.9c-20.9,0-37.8-15.7-37.8-35.1c0-3.5,0.6-7,1.7-10.3c-1.8-4.4-2.7-9.1-2.7-14
						c0-16.7,11-31,26.3-34.6c0.2-18.2,15.8-33,34.8-33c5.4,0,10.8,1.2,15.7,3.6c6.5-6.5,15.8-10.2,25.8-10.2
						c19,0,34.4,13.6,34.4,30.3c0,1.6-0.1,3.1-0.4,4.6c5.5,2.5,10.2,6.3,13.6,11.3c3.9,5.6,5.9,12.1,5.9,18.9
						c0,18.3-14.9,33.2-33.2,33.2c-2.1,0-4.2-0.2-6.2-0.6c-4.3,12.5-16.1,21.1-29.1,21.1c-5.3,0-10.5-1.4-15.1-4
						C192.8,169.6,179.8,176.9,165.7,176.9z M187.9,53.9c-17,0-30.8,13.2-30.8,29.3c0,0.5,0,0.8,0,1.1c0.1,1-0.7,1.9-1.7,2.1
						c-14.3,2.6-24.6,15.7-24.6,31c0,4.6,0.9,9,2.7,13.1c0.2,0.5,0.2,1,0,1.5c-1.1,3.1-1.7,6.4-1.7,9.7c0,17.1,15.2,31,33.8,31
						c13.4,0,25.6-7.3,31-18.6c0.3-0.5,0.7-0.9,1.3-1.1c0.6-0.2,1.2-0.1,1.7,0.3c4.4,3,9.5,4.5,14.8,4.5c11.9,0,22.5-8.2,25.8-20
						c0.3-1.1,1.4-1.7,2.4-1.4c2.3,0.6,4.7,0.9,7.1,0.9c16,0,29.1-13.1,29.1-29.1c0-12.1-7.3-22.7-18.5-27.1
						c-0.9-0.4-1.5-1.4-1.2-2.4c0.4-1.8,0.6-3.6,0.6-5.4c0-14.5-13.6-26.2-30.3-26.2c-9.4,0-18,3.7-23.9,10
						c-0.6,0.7-1.6,0.9-2.5,0.4C198.4,55.3,193.2,53.9,187.9,53.9z"/>
				</g>
			</g>
			<g>
				<g>
					<path class="st2" d="M183.1,95.9c-0.5,0-1.1-0.2-1.5-0.6c-5.6-5.9-13.1-9.2-21-9.2c-1.7,0-3.5,0.2-5.1,0.5
						c-1.1,0.2-2.2-0.5-2.4-1.6c-0.2-1.1,0.5-2.2,1.6-2.4c1.9-0.4,3.9-0.5,5.9-0.5c9,0,17.6,3.7,24,10.4c0.8,0.8,0.7,2.1-0.1,2.9
						C184.1,95.7,183.6,95.9,183.1,95.9z"/>
				</g>
			</g>
			<g>
				<g>
					<path class="st2" d="M176.5,135.2c-8.2,0-15.8-3.7-20.9-10.1c-0.7-0.9-0.6-2.1,0.3-2.8c0.9-0.7,2.1-0.6,2.8,0.3
						c4.3,5.4,10.8,8.5,17.8,8.5c12.5,0,22.7-10.2,22.7-22.7c0-5.2-1.8-10.3-5.1-14.4c-0.7-0.9-0.6-2.1,0.3-2.8
						c0.9-0.7,2.1-0.6,2.8,0.3c3.9,4.8,6,10.8,6,16.9C203.3,123.2,191.3,135.2,176.5,135.2z"/>
				</g>
			</g>
			<g>
				<g>
					<path class="st2" d="M165.6,147.5c-1.1,0-2-0.9-2-2c0-5,1.3-10,3.6-14.4c0.5-1,1.8-1.3,2.7-0.8c1,0.5,1.3,1.8,0.8,2.7
						c-2.1,3.8-3.1,8.1-3.1,12.5C167.6,146.6,166.7,147.5,165.6,147.5z"/>
				</g>
			</g>
			<g>
				<g>
					<path class="st2" d="M217.3,131.7c-0.7,0-1.3-0.3-1.7-0.9c-3.9-5.8-9.8-9.7-16.6-11.1c-1.1-0.2-1.8-1.3-1.6-2.4
						c0.2-1.1,1.3-1.8,2.4-1.6c7.8,1.6,14.6,6.1,19.1,12.8c0.6,0.9,0.4,2.2-0.5,2.8C218.1,131.6,217.7,131.7,217.3,131.7z"/>
				</g>
			</g>
			<g>
				<g>
					<path class="st2" d="M236.5,113.2c-0.6,0-1.3-0.3-1.7-0.9c-0.6-0.9-0.4-2.2,0.5-2.8c4.8-3.3,10.4-5.1,16.3-5.1
						c3.6,0,7.2,0.7,10.6,2c1,0.4,1.5,1.6,1.1,2.6c-0.4,1-1.6,1.5-2.6,1.1c-2.9-1.2-6-1.7-9.1-1.7c-5,0-9.9,1.5-14,4.3
						C237.2,113.1,236.8,113.2,236.5,113.2z"/>
				</g>
			</g>
			<g>
				<g>
					<path class="st2" d="M215.9,88.4c-2,0-4-0.3-5.9-0.8c-1.1-0.3-1.7-1.4-1.4-2.5c0.3-1.1,1.4-1.7,2.5-1.4
						c1.5,0.5,3.1,0.7,4.7,0.7c4.4,0,8.5-1.7,11.7-4.8c0.8-0.8,2.1-0.8,2.9,0c0.8,0.8,0.8,2.1,0,2.9
						C226.5,86.3,221.3,88.4,215.9,88.4z"/>
				</g>
			</g>
			<g class="st4">
				<g>
					<path class="st5" d="M177.2,67.7c0,4.6,6.9,0.5,14.3,0.5s12.5,4.1,12.5-0.5s-6-8.3-13.4-8.3C183.2,59.4,177.2,63.1,177.2,67.7z
						"/>
				</g>
			</g>
			<g class="st4">
				<g>
					<path class="st5" d="M149.3,96.6c0,3.9,4.1,0,9.8,0c5.6,0,10.7,3.9,10.7,0s-4.6-7.1-10.2-7.1C153.9,89.5,149.3,92.7,149.3,96.6
						z"/>
				</g>
			</g>
			<g class="st4">
				<g>
					<path class="st5" d="M173.2,155.2c1.1-3.8-5.1-1.5-12.1-3.5s-12.1-7.7-13.2-3.9c-1.1,3.8,3.6,8.5,10.6,10.6
						C165.6,160.4,172.1,159,173.2,155.2z"/>
				</g>
			</g>
			<g class="st4">
				<g>
					<path class="st5" d="M255,90.6c-2.6,2.9,3,2.8,7.2,6.6c4.2,3.8,5.2,10.1,7.9,7.2c2.6-2.9,1.4-8.4-2.8-12.1S257.6,87.7,255,90.6
						z"/>
				</g>
			</g>
			<g class="st4">
				<g>
					<path class="st5" d="M240.4,57.2c-2.2,2,1.2,4,4.3,7.3c3.1,3.4,4.7,6.9,6.9,4.9c2.2-2,1.5-6.4-1.6-9.8
						C246.9,56.3,242.6,55.2,240.4,57.2z"/>
				</g>
			</g>
			<g class="st4">
				<g>
					
						<ellipse transform="matrix(0.2239 -0.9746 0.9746 0.2239 128.9453 268.9218)" class="st5" cx="233.3" cy="53.5" rx="2.8" ry="4.1"/>
				</g>
			</g>
			<g class="st4">
				<g>
					
						<ellipse transform="matrix(0.6399 -0.7684 0.7684 0.6399 -26.9258 146.8983)" class="st5" cx="143.3" cy="102.2" rx="3.7" ry="2.7"/>
				</g>
			</g>
			<g class="st4">
				<g>
					<path class="st5" d="M222.6,116.7c-1.7,0.9,0.5,2.1,1.9,5.1c1.4,3,1.3,6.1,3.1,5.7c3.4-0.7,4-4.8,2.6-7.8
						C228.8,116.7,225.6,115,222.6,116.7z"/>
				</g>
			</g>
		</g>
	</g>
	<g class="st7">
		<g class="st8">
			<path class="st2" d="M165.7,178.2c-17,0-32.1-10.3-37.3-25.3c-2,0.3-4.1,0.5-6.1,0.5c-20.6,0-37.4-16.8-37.4-37.4
				c0-8.2,2.7-16.2,7.7-22.7c-3.3-4.5-5.1-9.9-5.1-15.5c0-14.4,11.7-26.1,26.1-26.1c0.5,0,1.1,0,1.6,0.1
				c1.7-17.2,16.2-30.5,33.6-30.5c5.6,0,11.2,1.4,16.1,4.1c7.8-7.4,18.4-11.7,29.2-11.7c18.1,0,34.1,11.4,39.9,28.5
				c8.4,1,16.1,4.5,21.8,10.1c6,5.8,9.3,13.4,9.3,21.2c0,1.3-0.1,2.6-0.3,3.9c12,5.8,19.4,17.6,19.4,31c0,19-15.5,34.5-34.5,34.5
				c-1.8,0-3.6-0.1-5.4-0.4c-4.8,12.6-16.7,20.9-30,20.9c-5.1,0-10.1-1.2-14.6-3.6C192.8,171.2,179.9,178.2,165.7,178.2z
				 M129.3,150.1c0.6,0,1.1,0.4,1.3,0.9c4.4,14.5,18.9,24.6,35.1,24.6c13.7,0,26.1-7,32.4-18.3c0.2-0.3,0.5-0.5,0.8-0.6
				c0.3-0.1,0.7,0,1,0.1c4.4,2.5,9.4,3.9,14.4,3.9c12.5,0,23.7-8.1,27.9-20.2c0.2-0.6,0.8-1,1.5-0.9c2,0.4,4,0.6,6,0.6
				c17.6,0,31.8-14.3,31.8-31.8c0-12.7-7.2-23.8-18.8-29c-0.6-0.2-0.9-0.8-0.8-1.4c0.3-1.5,0.4-2.9,0.4-4.4
				c0-14.8-12.7-27.2-29.5-28.8c-0.5,0-1-0.4-1.1-0.9c-5.3-16.4-20.5-27.5-37.7-27.5c-10.4,0-20.6,4.2-28,11.6
				c-0.4,0.4-1.1,0.5-1.6,0.2c-4.7-2.7-10.1-4.2-15.6-4.2c-16.5,0-30.2,12.9-31.1,29.4c0,0.4-0.2,0.7-0.5,0.9
				c-0.3,0.2-0.6,0.3-1,0.3c-0.9-0.1-1.8-0.2-2.7-0.2c-12.9,0-23.4,10.5-23.4,23.5c0,5.3,1.8,10.6,5.2,14.7c0.4,0.5,0.4,1.2,0,1.7
				c-5,6.1-7.7,13.9-7.7,21.8c0,19.2,15.6,34.8,34.8,34.8c2.2,0,4.5-0.2,6.7-0.7C129.1,150.1,129.2,150.1,129.3,150.1z"/>
		</g>
	</g>
</g>
<g>
	<path class="st9" d="M10.5,238.8v-52.6h22.6l9.5,11l9.6-11h22.6v52.6H51.5v-26.4l-8.8,10.2l-8.8-10.2v26.4H10.5z"/>
	<path class="st9" d="M84.2,214.3v-12.5c6-3.3,12.9-4.9,20.5-4.9c7.3,0,12.6,1.6,16.1,4.7c3.4,3.1,5.2,7.9,5.2,14.2v23h-21.3v-3.1
		c-3.2,2.3-6.6,3.4-10.4,3.4c-3.2,0-5.8-1-7.9-3.1c-2.1-2.1-3.2-4.7-3.2-7.8c0-3.6,1.3-6.5,3.9-8.7s6-3.4,10.3-3.4
		c2.5,0,4.9,0.3,7.3,1c0-1.9-0.7-3.4-2.2-4.5s-3.5-1.6-6.2-1.6C92.3,211,88.3,212.1,84.2,214.3z M104.6,229.6v-5.8
		c-1.3-0.4-2.4-0.7-3.5-0.7c-1.3,0-2.3,0.3-3.1,1c-0.8,0.7-1.2,1.5-1.2,2.6c0,1.1,0.4,2.1,1.3,2.8s1.9,1.1,3.2,1.1
		C102.6,230.8,103.7,230.4,104.6,229.6z"/>
	<path class="st9" d="M130.3,234.8l4.8-11.7c1.5,2,3.2,3.5,5.3,4.6s4.1,1.7,6.1,1.7c1.2,0,2.2-0.3,3-0.8c0.7-0.6,1.1-1.3,1.1-2.1
		c0-0.9-0.3-1.6-0.9-2.2c-0.6-0.6-2.3-1.3-5-2.1c-2.7-0.8-5-1.6-6.7-2.6c-1.7-0.9-3.2-2.3-4.4-4.1c-1.2-1.8-1.7-3.8-1.7-5.9
		c0-4.1,1.8-7.4,5.3-9.6c3.6-2.3,8.5-3.4,15-3.4c7.2,0,13.4,1.2,18.5,3.6l-5.1,10.6c-3.4-3-6.6-4.5-9.7-4.5c-1,0-1.9,0.2-2.5,0.7
		c-0.6,0.5-1,1-1,1.8c0,0.9,0.3,1.6,1,2.2c0.7,0.6,2.4,1.3,5.2,2c2.9,0.7,5.2,1.5,7.1,2.4s3.4,2.3,4.5,4.1c1.1,1.8,1.7,3.9,1.7,6.3
		c0,4.3-1.7,7.7-5.2,10.1c-3.5,2.5-7.9,3.7-13.4,3.7C145.6,239.4,138,237.9,130.3,234.8z"/>
	<path class="st9" d="M210.7,197.3v11.7h-8.9v8.9c0,3,1.3,4.5,4,4.5c2,0,3.7-1,5.1-3v16.5c-3.4,2.2-7.4,3.3-12.2,3.3
		c-5.1,0-9.4-1.5-13-4.6c-3.5-3.1-5.3-7.3-5.3-12.6v-13h-8.7l30-23.5v11.9H210.7z"/>
	<path class="st9" d="M259.8,223v7.3c-4.7,6.1-11.4,9.2-20.1,9.2c-7.2,0-13-2-17.4-6c-4.4-4-6.6-9.3-6.6-15.9c0-6.2,2-11.3,6.1-15.2
		c4-3.9,9.3-5.9,15.7-5.9c3.3,0,6.3,0.6,9.1,1.7c2.8,1.1,5.2,2.7,7.3,4.9s3.6,4.6,4.5,7.5c1,2.8,1.4,6.3,1.4,10.3H238
		c0.8,2.1,2.1,3.8,3.9,5c1.8,1.2,3.9,1.8,6.3,1.8C253.1,227.5,256.9,226,259.8,223z M236.7,213.4h10c-0.1-2.1-0.6-3.7-1.5-4.8
		c-0.9-1.2-2.1-1.7-3.6-1.7c-1.3,0-2.4,0.6-3.4,1.7C237.2,209.6,236.7,211.3,236.7,213.4z"/>
	<path class="st9" d="M287.7,206.4c2.7-6.3,6.6-9.5,11.8-9.5c2.9,0,5.2,0.9,7.1,2.8c1.9,1.9,2.8,4.3,2.8,7.2c0,3-0.9,5.5-2.7,7.4
		c-1.8,1.9-4.2,2.8-7.2,2.8c-3.4,0-6.2-1.3-8.6-3.8c-2.1,1.8-3.2,5.1-3.2,10v15.5h-21.3v-41.5h21.3V206.4z"/>
	<path class="st9" d="M309.9,234.8l4.8-11.7c1.5,2,3.2,3.5,5.3,4.6c2.1,1.1,4.1,1.7,6.1,1.7c1.2,0,2.2-0.3,3-0.8s1.1-1.3,1.1-2.1
		c0-0.9-0.3-1.6-0.9-2.2c-0.6-0.6-2.3-1.3-5-2.1c-2.7-0.8-5-1.6-6.7-2.6c-1.7-0.9-3.2-2.3-4.4-4.1c-1.2-1.8-1.7-3.8-1.7-5.9
		c0-4.1,1.8-7.4,5.3-9.6c3.6-2.3,8.5-3.4,15-3.4c7.2,0,13.4,1.2,18.5,3.6l-5.1,10.6c-3.4-3-6.6-4.5-9.7-4.5c-1,0-1.9,0.2-2.5,0.7
		s-1,1-1,1.8c0,0.9,0.3,1.6,1,2.2s2.4,1.3,5.2,2c2.9,0.7,5.2,1.5,7.1,2.4c1.9,0.9,3.4,2.3,4.5,4.1c1.1,1.8,1.7,3.9,1.7,6.3
		c0,4.3-1.7,7.7-5.2,10.1c-3.5,2.5-7.9,3.7-13.4,3.7C325.3,239.4,317.7,237.9,309.9,234.8z"/>
</g>
<g>
	<path class="st10" d="M46.4,287h-5.3v-27.6l-5.3,5.3v6.6h-5.3v-6.6l-5.3-5.3V287h-5.3v-36.8H24l9.2,9.2l9.2-9.2h3.9V287z"/>
	<path class="st10" d="M76.7,287H60.9c-2.9,0-5.4-1-7.4-3.1c-2.1-2.1-3.1-4.5-3.1-7.4v-5.3c0-2.9,1-5.4,3.1-7.4
		c2.1-2.1,4.5-3.1,7.4-3.1h5.3c2.9,0,5.4,1,7.4,3.1c2.1,2.1,3.1,4.5,3.1,7.4v5.3H55.7c0,1.4,0.5,2.7,1.6,3.7c1,1,2.3,1.6,3.7,1.6
		h15.8V287z M71.5,271.2c0-1.4-0.5-2.7-1.6-3.7c-1-1-2.3-1.6-3.7-1.6h-5.3c-1.4,0-2.7,0.5-3.7,1.6c-1,1-1.6,2.3-1.6,3.7H71.5z"/>
	<path class="st10" d="M107,287h-5.3v-15.8c0-1.4-0.5-2.7-1.6-3.7c-1-1-2.3-1.6-3.7-1.6V287h-5.3v-21.1H86V287h-5.3v-26.3h15.8
		c2.9,0,5.4,1,7.4,3.1c2.1,2.1,3.1,4.5,3.1,7.4V287z"/>
	<path class="st10" d="M137.4,276.5c0,2.9-1,5.4-3.1,7.4c-2.1,2.1-4.5,3.1-7.4,3.1h-5.3c-2.9,0-5.4-1-7.4-3.1
		c-2.1-2.1-3.1-4.5-3.1-7.4v-5.3c0-2.9,1-5.4,3.1-7.4c2.1-2.1,4.5-3.1,7.4-3.1h5.3c2.9,0,5.4,1,7.4,3.1c2.1,2.1,3.1,4.5,3.1,7.4
		V276.5z M132.1,276.5v-5.3c0-1.4-0.5-2.7-1.6-3.7c-1-1-2.3-1.6-3.7-1.6h-5.3c-1.4,0-2.7,0.5-3.7,1.6c-1,1-1.6,2.3-1.6,3.7v5.3
		c0,1.4,0.5,2.7,1.6,3.7c1,1,2.3,1.6,3.7,1.6h5.3c1.4,0,2.7-0.5,3.7-1.6C131.6,279.1,132.1,277.9,132.1,276.5z"/>
	<path class="st10" d="M146.6,260.7v7.2l3.3-3.3c2.6-2.6,5-3.9,7.2-3.9c2.9,0,5.4,1,7.4,3.1c2.1,2.1,3.1,4.5,3.1,7.4h-5.3
		c0-1.4-0.5-2.7-1.6-3.7c-1-1-2.3-1.6-3.7-1.6c-1.8,0-3.5,0.9-5.3,2.6l-5.3,5.3V287h-5.3v-26.3H146.6z"/>
	<path class="st10" d="M198,287c0,2.9-1,5.3-3.1,7.4c-2.1,2.1-4.5,3.1-7.4,3.1h-10.5v-5.3h10.5c1.4,0,2.7-0.5,3.7-1.6
		c1-1,1.6-2.3,1.6-3.7h-10.5c-2.9,0-5.4-1-7.4-3.1c-2.1-2.1-3.1-4.5-3.1-7.4v-15.8h5.3v15.8c0,1.4,0.5,2.7,1.6,3.7
		c1,1,2.3,1.6,3.7,1.6h10.5v-21.1h5.3V287z"/>
	<path class="st10" d="M242.2,276.5c0,2.9-1,5.4-3.1,7.4c-2.1,2.1-4.5,3.1-7.4,3.1h-5.3c-2.9,0-5.4-1-7.4-3.1s-3.1-4.5-3.1-7.4
		v-15.8c0-2.9,1-5.4,3.1-7.4c2.1-2.1,4.5-3.1,7.4-3.1h5.3c2.9,0,5.4,1,7.4,3.1c2.1,2.1,3.1,4.5,3.1,7.4H237c0-1.4-0.5-2.7-1.6-3.7
		c-1-1-2.3-1.6-3.7-1.6h-5.3c-1.4,0-2.7,0.5-3.7,1.6c-1,1-1.6,2.3-1.6,3.7v15.8c0,1.4,0.5,2.7,1.6,3.7c1,1,2.3,1.6,3.7,1.6h5.3
		c1.4,0,2.7-0.5,3.7-1.6c1-1,1.6-2.3,1.6-3.7v-5.3h-5.3v-5.3h10.5V276.5z"/>
	<path class="st10" d="M272.5,260.7V287h-5.3v-7.3L264,283c-2.6,2.6-5.1,3.9-7.3,3.9c-2.9,0-5.4-1-7.4-3.1c-2.1-2.1-3.1-4.5-3.1-7.4
		v-5.3c0-2.9,1-5.4,3.1-7.4c2.1-2.1,4.5-3.1,7.4-3.1H272.5z M256.8,265.9c-1.4,0-2.7,0.5-3.7,1.6c-1,1-1.6,2.3-1.6,3.7v5.3
		c0,1.4,0.5,2.7,1.6,3.7c1,1,2.3,1.6,3.7,1.6c1.8,0,3.5-0.9,5.3-2.6l5.3-5.3v-7.9H256.8z"/>
	<path class="st10" d="M302.9,287h-5.3v-15.8c0-1.4-0.5-2.7-1.6-3.7c-1-1-2.3-1.6-3.7-1.6V287h-5.3v-21.1h-5.3V287h-5.3v-26.3h15.8
		c2.9,0,5.4,1,7.4,3.1c2.1,2.1,3.1,4.5,3.1,7.4V287z"/>
	<path class="st10" d="M333.2,287h-15.8c-2.9,0-5.4-1-7.4-3.1s-3.1-4.5-3.1-7.4v-5.3c0-2.9,1-5.4,3.1-7.4c2.1-2.1,4.5-3.1,7.4-3.1
		h5.3c2.9,0,5.4,1,7.4,3.1c2.1,2.1,3.1,4.5,3.1,7.4v5.3h-21.1c0,1.4,0.5,2.7,1.6,3.7c1,1,2.3,1.6,3.7,1.6h15.8V287z M327.9,271.2
		c0-1.4-0.5-2.7-1.6-3.7c-1-1-2.3-1.6-3.7-1.6h-5.3c-1.4,0-2.7,0.5-3.7,1.6c-1,1-1.6,2.3-1.6,3.7H327.9z"/>
</g>
</svg>
