<?xml version="1.0" encoding="utf-8"?>
<!-- Generator: Adobe Illustrator 24.0.1, SVG Export Plug-In . SVG Version: 6.00 Build 0)  -->
<svg version="1.1" id="Capa_1" xmlns="http://www.w3.org/2000/svg" xmlns:xlink="http://www.w3.org/1999/xlink" x="0px" y="0px"
	 viewBox="0 0 400 350" style="enable-background:new 0 0 400 350;" xml:space="preserve">
<style type="text/css">
	.st0{fill:#FFB3B3;}
	.st1{opacity:0.3;}
	.st2{fill:#A61162;}
	.st3{fill:none;stroke:#A61162;stroke-width:0.491;stroke-miterlimit:10;}
	.st4{opacity:0.6;}
	.st5{fill:#FFFFFF;}
	.st6{fill:#17C3B2;stroke:#227C9D;stroke-width:5.0882;stroke-miterlimit:10;}
	.st7{display:none;}
	.st8{display:inline;}
	.st9{fill:#17C3B2;stroke:#227C9D;stroke-width:3;stroke-miterlimit:10;}
	.st10{fill:#FFCB77;stroke:#FF8E78;stroke-width:2.1912;stroke-miterlimit:10;}
</style>
<g>
	<g>
		<g>
			<g>
				<path class="st0" d="M127.6,141.3c0,3.6,0.7,7.1,1.9,10.3c4.1,10.9,14.7,18.6,27,18.6c12.6,0,23.4-8.1,27.3-19.4
					c23.4,1.7,36.7-8.8,42.3-28.7c14-3.8,24.3-16.6,24.3-31.9c0-9.9-4.3-18.7-11.2-24.8c-5.8-5.2-13.5-8.3-21.9-8.3
					c-9.6,0-18.3,4.1-24.3,10.7c-4.1-2.7-8.9-4.2-14.1-4.2c-3.6,0-7.1,0.8-10.2,2.1c-9.1,3.9-15.5,12.9-15.6,23.4c0,0.1,0,0.2,0,0.4
					c0,0.1,0,0.3,0,0.4v0c-1.3-0.3-2.7-0.4-4.1-0.4c-6.3,0-11.9,3-15.4,7.7h0c-2.4,3.2-3.9,7.3-3.9,11.6c0,4.7,1.7,9,4.5,12.4
					c0.2,0.3,0.4,0.5,0.7,0.8C130.4,127.1,127.6,133.9,127.6,141.3z"/>
			</g>
		</g>
		<g class="st1">
			<g>
				<path class="st2" d="M129.5,151.6c4.1,10.9,14.7,18.6,27,18.6c12.6,0,23.4-8.1,27.3-19.4c23.4,1.7,36.7-8.8,42.3-28.7
					c14-3.8,24.3-16.6,24.3-31.9c0-9.9-4.3-18.7-11.2-24.8c3.2,8.2-6.7,18.9-19.6,12.1c0,0-0.3-1-1.1-2c-1.4-1.8-4.1-1.1-4.6,1.1
					c-1.3,6.4-8.7,9.3-12.7-2.4l-5-4c5.3,15-5.2,20.7-15.8,17.1c-0.9-0.3-1.7,0.6-1.3,1.5c5.4,12-5.5,27.1-23.1,22.1
					c6,12.4,2.4,28-13.6,24.3c-0.7-0.2-1.2,0.7-0.7,1.2c1.7,1.5,5,3.6,10.7,3.9C160.3,154.3,149.1,173.8,129.5,151.6
					C129.5,151.5,129.5,151.5,129.5,151.6z"/>
			</g>
		</g>
		<g>
			<g>
				<path class="st2" d="M156.6,171.9c-16.9,0-30.6-13.7-30.6-30.6c0-7,2.4-13.8,6.8-19.2c-3-3.7-4.6-8.4-4.6-13.2
					c0-11.6,9.4-21,21-21c0.8,0,1.6,0,2.4,0.1c0.8-14.5,12.8-26,27.5-26c4.9,0,9.6,1.3,13.8,3.7c6.5-6.5,15.4-10.2,24.6-10.2
					c19.2,0,34.8,15.6,34.8,34.8c0,15.3-10.1,28.9-24.7,33.3c-6.1,20.5-20.3,30.3-42.5,29.1C180.4,164.2,169.1,171.9,156.6,171.9z
					 M149.1,91.3c-9.7,0-17.6,7.9-17.6,17.6c0,4.5,1.7,8.7,4.7,12c0.6,0.7,0.6,1.7,0,2.3c-4.5,5-6.9,11.4-6.9,18.1
					c0,15,12.2,27.2,27.2,27.2c11.6,0,21.9-7.3,25.7-18.3c0.3-0.7,1-1.2,1.7-1.1c21.7,1.6,34.9-7.4,40.5-27.4c0.2-0.6,0.6-1,1.2-1.2
					c13.6-3.7,23.1-16.1,23.1-30.2c0-17.3-14-31.3-31.3-31.3c-8.7,0-17.1,3.7-23,10.1c-0.6,0.6-1.5,0.7-2.2,0.3
					c-3.9-2.6-8.5-3.9-13.2-3.9c-13.3,0-24.1,10.8-24.1,24.1c0,0.1,0,0.3,0,0.4c0,0,0,0,0,0.1c0,0.5-0.2,1-0.6,1.3
					c-0.4,0.3-0.9,0.5-1.4,0.3C151.6,91.4,150.4,91.3,149.1,91.3z"/>
			</g>
		</g>
		<g>
			<g>
				<path class="st2" d="M155.9,143.2c-2.4,0-4.8-0.3-7.1-0.8c-0.9-0.2-1.5-1.1-1.3-2c0.2-0.9,1.1-1.5,2-1.3
					c2.1,0.5,4.2,0.7,6.4,0.7c16.7,0,30.2-13.6,30.2-30.2c0-7.6-2.8-14.9-8-20.5c-0.6-0.7-0.6-1.8,0.1-2.4c0.7-0.6,1.8-0.6,2.4,0.1
					c5.7,6.2,8.9,14.3,8.9,22.8C189.5,128.1,174.4,143.2,155.9,143.2z"/>
			</g>
		</g>
		<g>
			<g>
				<path class="st2" d="M196.7,100c-0.9,0-1.7-0.8-1.7-1.7c0-0.9,0.8-1.7,1.7-1.7c10.7,0,19.7-8.4,20.4-19c0.1-0.9,0.9-1.7,1.8-1.6
					c0.9,0.1,1.7,0.9,1.6,1.8C219.7,90.2,209.2,100,196.7,100z"/>
			</g>
		</g>
		<g>
			<g>
				<path class="st2" d="M161.4,95.7c-0.4,0-0.8-0.1-1.1-0.4c-2.2-1.8-4.7-3-7.5-3.6c-0.9-0.2-1.5-1.1-1.3-2c0.2-0.9,1.1-1.5,2-1.3
					c3.3,0.7,6.4,2.2,8.9,4.3c0.7,0.6,0.8,1.7,0.2,2.4C162.4,95.5,161.9,95.7,161.4,95.7z"/>
			</g>
		</g>
		<g>
			<g>
				<path class="st2" d="M202,79.3c-0.6,0-1.2-0.3-1.5-0.9c-1.9-3.7-4.8-6.8-8.2-9.1c-0.8-0.5-1-1.6-0.5-2.4c0.5-0.8,1.6-1,2.4-0.5
					c4,2.6,7.2,6.2,9.4,10.4c0.4,0.8,0.1,1.9-0.7,2.3C202.5,79.3,202.2,79.3,202,79.3z"/>
			</g>
		</g>
		<g>
			<g>
				<path class="st2" d="M135,123.7c-0.4,0-0.9-0.2-1.2-0.5c-0.7-0.7-0.7-1.7,0-2.4c0.1-0.1,2.4-2.4,5.5-4.9
					c0.7-0.6,1.8-0.5,2.4,0.3c0.6,0.7,0.5,1.8-0.3,2.4c-2.9,2.3-5.1,4.6-5.1,4.6C135.9,123.6,135.4,123.7,135,123.7z"/>
			</g>
		</g>
		<g>
			<g>
				<path class="st2" d="M162.5,116.1c-0.4,0-0.7-0.1-1-0.3c-1.9-1.4-4.2-2.2-6.6-2.2c-0.7,0-1.3,0.1-2,0.2c-0.9,0.2-1.8-0.5-2-1.4
					c-0.2-0.9,0.5-1.8,1.4-2c0.8-0.2,1.7-0.2,2.6-0.2c3.1,0,6.1,1,8.6,2.9c0.8,0.6,0.9,1.6,0.4,2.4
					C163.5,115.9,163,116.1,162.5,116.1z"/>
			</g>
		</g>
		<g>
			<g>
				<path class="st3" d="M241.2,67.3"/>
			</g>
		</g>
		<g class="st1">
			<g>
				<path class="st2" d="M129.8,108.9c0,4.7,1.7,9,4.5,12.4l6.9-4.3c0.9-0.6,0.8-1.9-0.1-2.3c-10.7-5.5-7.4-17.4-7.4-17.4h0
					C131.2,100.4,129.8,104.5,129.8,108.9z"/>
			</g>
		</g>
		<g class="st1">
			<g>
				<path class="st2" d="M153.2,89.2c3.5,1,7,3.1,9.4,4.7c0.8,0.6,1.9-0.3,1.6-1.2c-4.2-12.1-0.6-19.9,5.5-26.3l-0.9-0.5
					C159.7,69.7,153.3,78.7,153.2,89.2z"/>
			</g>
		</g>
		<g class="st4">
			<g>
				<path class="st5" d="M171.8,72.9c0,2.8,3.5,1,7.7,1s7.7,1.8,7.7-1s-3.5-5.1-7.7-5.1S171.8,70.1,171.8,72.9z"/>
			</g>
		</g>
		<g class="st4">
			<g>
				<path class="st5" d="M141.4,101.1c0,2.8,3.5,1,7.7,1c4.3,0,7.7,1.8,7.7-1s-3.5-5.1-7.7-5.1C144.8,96,141.4,98.3,141.4,101.1z"/>
			</g>
		</g>
		<g class="st4">
			<g>
				<path class="st5" d="M148.6,154.4c1.7-2.2-2.2-2.9-5.6-5.4c-3.4-2.6-5.1-6.1-6.8-3.8c-1.7,2.2-0.3,6.1,3.1,8.7
					C142.8,156.3,146.9,156.6,148.6,154.4z"/>
			</g>
		</g>
		<g class="st4">
			<g>
				<path class="st5" d="M216.1,65.6c-0.8,2.7,3.6,2.1,8.5,3.6c4.9,1.4,8.3,4.3,9.1,1.7c0.8-2.7-2.5-6-7.3-7.5
					C221.4,61.9,216.9,62.9,216.1,65.6z"/>
			</g>
		</g>
		<g>
			<g>
				
					<ellipse transform="matrix(0.7071 -0.7071 0.7071 0.7071 15.4675 167.807)" class="st5" cx="210.3" cy="65.2" rx="2.7" ry="2.3"/>
			</g>
		</g>
		<g class="st4">
			<g>
				
					<ellipse transform="matrix(0.9236 -0.3833 0.3833 0.9236 -37.7067 66.463)" class="st5" cx="147.9" cy="127.8" rx="5.1" ry="3.7"/>
			</g>
		</g>
		<path class="st6" d="M114,132.7V56.9h32.6l13.7,15.8l13.8-15.8h32.5v75.8H173v-38l-12.7,14.7l-12.7-14.7v38H114z"/>
		<g>
			<g>
				<g>
					<path class="st2" d="M221.2,176.2c-0.2,0-0.5-0.1-0.7-0.2c-0.9-0.4-1.2-1.4-0.8-2.3c1.2-2.5,1.9-5.1,2.2-7.8
						c0.1-0.9,1-1.6,1.9-1.5c0.9,0.1,1.6,1,1.5,1.9c-0.3,3.1-1.2,6.1-2.6,9C222.5,175.8,221.9,176.2,221.2,176.2z"/>
				</g>
			</g>
			<g>
				<g>
					<path class="st0" d="M164.5,154.4c-1,2.8-1.5,5.8-1.5,8.8c0,15.5,13.6,28.1,30.4,28.1c12.5,0,23.2-6.9,27.8-16.8
						c3.9,2.6,8.5,4.2,13.5,4.2c11.2,0,20.6-7.7,23.6-18.2c2.1,0.5,4.2,0.8,6.5,0.8c14.6,0,26.4-11.8,26.4-26.4
						c0-11.2-7-20.8-16.8-24.6c0.4-1.6,0.6-3.3,0.6-5c0-13.2-12.3-24-27.5-24c-8.7,0-16.5,3.5-21.5,9.1c-4-2.2-8.7-3.4-13.7-3.4
						c-15.4,0-27.9,11.9-27.9,26.6c0,0.3,0,0.7,0,1c-12.7,2.3-22.3,14-22.3,28C162.1,146.7,162.9,150.8,164.5,154.4z"/>
				</g>
			</g>
			<g class="st1">
				<g>
					<path class="st2" d="M187.8,143c12.9,10.9,35.7,5.9,33.4-17.9l2.7,10.1c7.6,0.6,9,6.3,9.2,13l3.3,4.6c0,0-7.4-6.4-21.3-0.5
						c-13.8,5.9-17.8,7.9-20.8,13.8l-1.8-0.4c-7.4-7.5-12.3-15-7.9-22.2C185.4,142.4,186.8,142.2,187.8,143z"/>
				</g>
			</g>
			<g class="st1">
				<g>
					<path class="st2" d="M247.1,131.7c-12-0.9-21.1-9.8-13.5-16.4c9.8,2.5,12.4-2.8,12.4-2.8c6-8.6,13.8-7.9,22.1-4
						c-14.6,1.6-17.7,21.2-4,24.6c-0.6,0.3-10.6,3-10.6,3l-4.1-3"/>
				</g>
			</g>
			<g class="st1">
				<g>
					<path class="st2" d="M197.6,90.8c-6.9,11-7.1,20.6,5.6,27.4c-5.7-2.9-11.5-4.9-17.8-4.4C184,103,189.7,96.2,197.6,90.8z"/>
				</g>
			</g>
			<g class="st1">
				<g>
					<path class="st2" d="M246.2,81.2c-8.1,3.7-13.6,8.2-11.5,15.4l-6.7-6.7l5.6-4.4l3.9-2.1"/>
				</g>
			</g>
			<g class="st1">
				<g>
					<path class="st2" d="M163.9,154.4c-2.3-11.1-1.1-20.3,2.9-28c-2,9.9-0.8,16,6,15.1l-4.4,4.9"/>
				</g>
			</g>
			<g class="st1">
				<g>
					<path class="st2" d="M163,163.2c0,15.5,13.6,28.1,30.4,28.1c12.5,0,23.2-6.9,27.8-16.8c3.9,2.6,8.5,4.2,13.5,4.2
						c11.2,0,20.6-7.7,23.6-18.2c2.9,0.7,6.1,1,9.3,0.6c13.6-1.4,23.7-12.8,23.6-26.4c0-1.5-0.1-2.9-0.4-4.3
						c-2.1,12.5-13,22-26.1,22c-2.2,0-4.4-0.3-6.5-0.8c-3,10.5-12.4,18.2-23.6,18.2c-3.9,0-7.6-0.9-10.9-2.6
						c-1.4-0.7-3.2-0.3-4.1,1.1c-5.2,8.4-15.1,14.1-26.4,14.1c-15.2,0-27.7-10.2-30-23.7C163.1,160.2,163,161.7,163,163.2z"/>
				</g>
			</g>
			<g>
				<g>
					<path class="st2" d="M164.5,156.1c-0.2,0-0.4,0-0.6-0.1c-0.9-0.3-1.4-1.3-1-2.2c2-5.5,5.6-10.3,10.5-13.9
						c0.8-0.6,1.8-0.4,2.4,0.4c0.6,0.8,0.4,1.8-0.4,2.4c-4.3,3.2-7.5,7.4-9.3,12.3C165.9,155.6,165.2,156.1,164.5,156.1z"/>
				</g>
			</g>
			<g>
				<g>
					<path class="st2" d="M258.3,162.1c-0.2,0-0.3,0-0.5-0.1c-0.9-0.3-1.4-1.2-1.2-2.1c0.6-2.1,0.9-4.3,0.9-6.6
						c0-9-4.9-17.1-12.8-21.1c-0.8-0.4-1.2-1.5-0.8-2.3c0.4-0.8,1.5-1.2,2.3-0.8c9,4.6,14.7,13.8,14.7,24.2c0,2.5-0.3,5.1-1,7.5
						C259.7,161.6,259,162.1,258.3,162.1z"/>
				</g>
			</g>
			<g>
				<g>
					<path class="st2" d="M274.3,111.9c-0.2,0-0.4,0-0.6-0.1c-2.1-0.8-4.2-1.3-6.4-1.6c-0.9-0.1-1.6-0.9-1.5-1.9
						c0.1-0.9,0.9-1.6,1.9-1.5c2.5,0.3,5,0.9,7.3,1.8c0.9,0.3,1.3,1.3,1,2.2C275.6,111.4,275,111.9,274.3,111.9z"/>
				</g>
			</g>
			<g>
				<g>
					<path class="st2" d="M225.9,92c-0.4,0-0.9-0.2-1.2-0.5c-0.7-0.7-0.7-1.8,0-2.4l0,0c0.7-0.7,1.8-0.7,2.4,0
						c0.7,0.7,0.7,1.8,0,2.4C226.8,91.8,226.3,92,225.9,92z"/>
				</g>
			</g>
			<g>
				<g>
					<path class="st2" d="M234.7,99.4c-0.5,0-1-0.2-1.4-0.7c-2.2-2.8-5-5.2-8.2-7c-0.8-0.5-1.1-1.5-0.7-2.3c0.5-0.8,1.5-1.1,2.3-0.7
						c3.6,2,6.9,4.7,9.3,7.9c0.6,0.8,0.4,1.8-0.3,2.4C235.4,99.3,235.1,99.4,234.7,99.4z"/>
				</g>
			</g>
			<g>
				<g>
					<path class="st2" d="M193.4,193c-17.7,0-32.1-13.4-32.1-29.8c0-3,0.5-6,1.4-8.8c-1.5-3.7-2.3-7.7-2.3-11.9
						c0-14.2,9.3-26.3,22.3-29.4c0.2-15.5,13.4-28,29.6-28c4.6,0,9.2,1,13.3,3c5.6-5.5,13.5-8.7,21.9-8.7
						c16.1,0,29.2,11.5,29.2,25.7c0,1.3-0.1,2.6-0.3,3.9c4.6,2.1,8.6,5.4,11.6,9.6c3.3,4.7,5,10.3,5,16.1
						c0,15.5-12.6,28.2-28.2,28.2c-1.8,0-3.5-0.2-5.3-0.5c-3.7,10.6-13.6,17.9-24.7,17.9c-4.5,0-8.9-1.2-12.8-3.4
						C216.4,186.7,205.4,193,193.4,193z M212.2,88.6c-14.4,0-26.1,11.2-26.1,24.9c0,0.4,0,0.7,0,0.9c0,0.9-0.6,1.6-1.4,1.8
						c-12.1,2.2-20.9,13.3-20.9,26.3c0,3.9,0.8,7.6,2.3,11.1c0.2,0.4,0.2,0.9,0,1.3c-1,2.7-1.4,5.4-1.4,8.3
						c0,14.5,12.9,26.4,28.7,26.4c11.4,0,21.7-6.2,26.3-15.8c0.2-0.5,0.6-0.8,1.1-0.9c0.5-0.1,1,0,1.4,0.2c3.7,2.5,8.1,3.9,12.5,3.9
						c10.1,0,19.1-7,21.9-17c0.3-0.9,1.2-1.4,2.1-1.2c2,0.5,4,0.7,6,0.7c13.6,0,24.7-11.1,24.7-24.7c0-10.3-6.2-19.3-15.8-23
						c-0.8-0.3-1.2-1.2-1-2c0.4-1.5,0.5-3,0.5-4.6c0-12.3-11.6-22.3-25.8-22.3c-7.9,0-15.3,3.1-20.3,8.5c-0.5,0.6-1.4,0.7-2.1,0.4
						C221.2,89.7,216.7,88.6,212.2,88.6z"/>
				</g>
			</g>
			<g>
				<g>
					<path class="st2" d="M208.2,124.1c-0.5,0-0.9-0.2-1.2-0.5c-4.8-5-11.1-7.8-17.9-7.8c-1.5,0-2.9,0.1-4.4,0.4
						c-0.9,0.2-1.8-0.4-2-1.4c-0.2-0.9,0.4-1.8,1.4-2c1.6-0.3,3.3-0.5,5-0.5c7.7,0,14.9,3.1,20.3,8.9c0.7,0.7,0.6,1.8-0.1,2.4
						C209,124,208.6,124.1,208.2,124.1z"/>
				</g>
			</g>
			<g>
				<g>
					<path class="st2" d="M202.6,157.6c-6.9,0-13.4-3.1-17.8-8.5c-0.6-0.7-0.5-1.8,0.3-2.4c0.7-0.6,1.8-0.5,2.4,0.3
						c3.7,4.6,9.2,7.3,15.1,7.3c10.6,0,19.3-8.7,19.3-19.3c0-4.4-1.5-8.8-4.4-12.2c-0.6-0.7-0.5-1.8,0.2-2.4
						c0.7-0.6,1.8-0.5,2.4,0.2c3.3,4,5.1,9.2,5.1,14.4C225.3,147.4,215.1,157.6,202.6,157.6z"/>
				</g>
			</g>
			<g>
				<g>
					<path class="st2" d="M193.3,168c-0.9,0-1.7-0.8-1.7-1.7c0-4.3,1.1-8.5,3.1-12.2c0.5-0.8,1.5-1.1,2.3-0.7
						c0.8,0.5,1.1,1.5,0.7,2.3c-1.7,3.2-2.7,6.9-2.7,10.6C195,167.2,194.2,168,193.3,168z"/>
				</g>
			</g>
			<g>
				<g>
					<path class="st2" d="M237.2,154.6c-0.6,0-1.1-0.3-1.4-0.8c-3.3-4.9-8.3-8.2-14.1-9.4c-0.9-0.2-1.5-1.1-1.3-2
						c0.2-0.9,1.1-1.5,2-1.3c6.7,1.3,12.4,5.2,16.2,10.8c0.5,0.8,0.3,1.9-0.5,2.4C237.9,154.5,237.6,154.6,237.2,154.6z"/>
				</g>
			</g>
			<g>
				<g>
					<path class="st2" d="M253.5,138.9c-0.5,0-1.1-0.3-1.4-0.7c-0.5-0.8-0.3-1.9,0.4-2.4c4.1-2.8,8.9-4.3,13.8-4.3
						c3.1,0,6.1,0.6,9,1.7c0.9,0.3,1.3,1.3,1,2.2c-0.3,0.9-1.3,1.3-2.2,1c-2.5-1-5.1-1.5-7.7-1.5c-4.3,0-8.4,1.3-11.9,3.7
						C254.2,138.8,253.8,138.9,253.5,138.9z"/>
				</g>
			</g>
			<g>
				<g>
					<path class="st2" d="M236,117.8c-1.7,0-3.4-0.2-5-0.7c-0.9-0.3-1.4-1.2-1.2-2.1c0.3-0.9,1.2-1.4,2.1-1.2c1.3,0.4,2.7,0.6,4,0.6
						c3.7,0,7.3-1.4,9.9-4c0.7-0.7,1.8-0.6,2.4,0c0.7,0.7,0.6,1.8,0,2.4C245,116,240.6,117.8,236,117.8z"/>
				</g>
			</g>
			<g class="st4">
				<g>
					<path class="st5" d="M203.1,100.3c0,3.9,5.8,0.4,12.1,0.4s10.6,3.5,10.6-0.4c0-3.9-5.1-7.1-11.4-7.1
						C208.2,93.2,203.1,96.3,203.1,100.3z"/>
				</g>
			</g>
			<g class="st4">
				<g>
					<path class="st5" d="M179.5,124.8c0,3.3,3.5,0,8.3,0c4.8,0,9.1,3.3,9.1,0s-3.9-6.1-8.7-6.1
						C183.4,118.8,179.5,121.5,179.5,124.8z"/>
				</g>
			</g>
			<g class="st4">
				<g>
					<path class="st5" d="M199.8,174.6c0.9-3.2-4.3-1.3-10.2-3c-5.9-1.7-10.3-6.5-11.2-3.3c-0.9,3.2,3.1,7.2,9,9
						S198.8,177.8,199.8,174.6z"/>
				</g>
			</g>
			<g class="st4">
				<g>
					<path class="st5" d="M269.2,119.7c-2.2,2.5,2.6,2.4,6.1,5.6c3.5,3.2,4.5,8.6,6.7,6.1c2.2-2.5,1.2-7.1-2.3-10.3
						C276.2,117.8,271.5,117.2,269.2,119.7z"/>
				</g>
			</g>
			<g class="st4">
				<g>
					<path class="st5" d="M256.9,91.3c-1.9,1.7,1,3.4,3.6,6.2c2.6,2.9,4,5.9,5.9,4.2c1.9-1.7,1.3-5.4-1.4-8.3
						C262.4,90.6,258.7,89.6,256.9,91.3z"/>
				</g>
			</g>
			<g class="st4">
				<g>
					
						<ellipse transform="matrix(0.2239 -0.9746 0.9746 0.2239 108.7497 312.8993)" class="st5" cx="250.8" cy="88.2" rx="2.4" ry="3.5"/>
				</g>
			</g>
			<g class="st4">
				<g>
					
						<ellipse transform="matrix(0.6399 -0.7684 0.7684 0.6399 -36.7359 180.6264)" class="st5" cx="174.4" cy="129.5" rx="3.1" ry="2.3"/>
				</g>
			</g>
			<g class="st4">
				<g>
					<path class="st5" d="M241.7,141.8c-1.4,0.8,0.4,1.8,1.6,4.3c1.2,2.5,1.1,5.2,2.6,4.9c2.9-0.6,3.4-4.1,2.2-6.6
						C247,141.8,244.3,140.4,241.7,141.8z"/>
				</g>
			</g>
		</g>
	</g>
	<g class="st7">
		<g class="st8">
			<path class="st2" d="M193.4,194.1c-14.4,0-27.3-8.8-31.7-21.5c-1.7,0.3-3.4,0.4-5.2,0.4c-17.5,0-31.8-14.2-31.8-31.8
				c0-7,2.3-13.8,6.5-19.3c-2.8-3.8-4.3-8.4-4.3-13.2c0-12.2,9.9-22.2,22.2-22.2c0.5,0,0.9,0,1.4,0c1.4-14.6,13.7-25.9,28.5-25.9
				c4.8,0,9.5,1.2,13.6,3.4c6.6-6.3,15.6-9.9,24.8-9.9c15.4,0,28.9,9.7,33.9,24.2c7.1,0.8,13.6,3.8,18.5,8.6
				c5.1,4.9,7.9,11.3,7.9,18c0,1.1-0.1,2.2-0.2,3.3c10.2,4.9,16.5,14.9,16.5,26.3c0,16.1-13.1,29.3-29.3,29.3
				c-1.5,0-3.1-0.1-4.6-0.4c-4.1,10.7-14.2,17.8-25.5,17.8c-4.3,0-8.6-1-12.4-3C216.4,188.1,205.4,194.1,193.4,194.1z M162.5,170.2
				c0.5,0,0.9,0.3,1.1,0.8c3.8,12.3,16,20.9,29.8,20.9c11.6,0,22.2-5.9,27.5-15.5c0.1-0.3,0.4-0.5,0.7-0.5c0.3-0.1,0.6,0,0.9,0.1
				c3.7,2.1,8,3.3,12.3,3.3c10.6,0,20.1-6.9,23.7-17.2c0.2-0.5,0.7-0.8,1.3-0.7c1.7,0.3,3.4,0.5,5.1,0.5c14.9,0,27-12.1,27-27
				c0-10.8-6.1-20.2-15.9-24.7c-0.5-0.2-0.7-0.7-0.6-1.2c0.2-1.2,0.3-2.5,0.3-3.7c0-12.6-10.8-23.1-25.1-24.4c-0.4,0-0.8-0.3-1-0.8
				c-4.5-14-17.4-23.3-32-23.3c-8.9,0-17.5,3.6-23.8,9.9c-0.4,0.4-0.9,0.4-1.4,0.2c-4-2.3-8.6-3.6-13.3-3.6c-14,0-25.6,11-26.4,24.9
				c0,0.3-0.2,0.6-0.4,0.8c-0.2,0.2-0.5,0.3-0.8,0.3c-0.8-0.1-1.5-0.1-2.3-0.1c-11,0-19.9,8.9-19.9,19.9c0,4.5,1.6,9,4.4,12.5
				c0.3,0.4,0.3,1,0,1.4c-4.2,5.2-6.6,11.8-6.6,18.5c0,16.3,13.2,29.5,29.5,29.5c1.9,0,3.8-0.2,5.7-0.6
				C162.3,170.2,162.4,170.2,162.5,170.2z"/>
		</g>
	</g>
</g>
<g>
	<path class="st9" d="M61.6,245.5v-44.7h19.2l8.1,9.3l8.1-9.3h19.2v44.7H96.4v-22.4l-7.5,8.6l-7.5-8.6v22.4H61.6z"/>
	<path class="st9" d="M124.2,224.8v-10.6c5.1-2.8,10.9-4.2,17.4-4.2c6.2,0,10.7,1.3,13.7,4s4.4,6.7,4.4,12.1v19.5h-18.1v-2.6
		c-2.7,2-5.6,2.9-8.8,2.9c-2.7,0-4.9-0.9-6.7-2.6c-1.8-1.7-2.7-4-2.7-6.6c0-3,1.1-5.5,3.3-7.4s5.1-2.9,8.7-2.9
		c2.1,0,4.2,0.3,6.2,0.8c0-1.6-0.6-2.9-1.9-3.8s-3-1.4-5.3-1.4C131.1,222,127.7,222.9,124.2,224.8z M141.5,237.7v-4.9
		c-1.1-0.4-2.1-0.6-3-0.6c-1.1,0-2,0.3-2.6,0.8c-0.7,0.6-1,1.3-1,2.2c0,1,0.4,1.8,1.1,2.4s1.6,1,2.7,1
		C139.8,238.7,140.8,238.4,141.5,237.7z"/>
	<path class="st9" d="M163.3,242.1l4-9.9c1.2,1.7,2.8,3,4.5,3.9c1.8,0.9,3.5,1.4,5.2,1.4c1.1,0,1.9-0.2,2.5-0.7s1-1.1,1-1.8
		c0-0.7-0.3-1.4-0.8-1.9c-0.5-0.5-2-1.1-4.3-1.8c-2.3-0.7-4.2-1.4-5.7-2.2c-1.5-0.8-2.7-2-3.7-3.5s-1.5-3.2-1.5-5
		c0-3.5,1.5-6.2,4.5-8.2c3-1.9,7.3-2.9,12.7-2.9c6.1,0,11.4,1,15.7,3l-4.3,9c-2.9-2.6-5.6-3.8-8.3-3.8c-0.9,0-1.6,0.2-2.1,0.6
		c-0.5,0.4-0.8,0.9-0.8,1.5c0,0.7,0.3,1.3,0.8,1.9s2,1.1,4.4,1.7c2.4,0.6,4.5,1.3,6,2.1s2.9,2,3.8,3.5s1.4,3.3,1.4,5.4
		c0,3.6-1.5,6.5-4.4,8.6c-2.9,2.1-6.7,3.1-11.4,3.1C176.4,246.1,169.9,244.7,163.3,242.1z"/>
	<path class="st9" d="M231.6,210.3v9.9H224v7.6c0,2.6,1.1,3.8,3.4,3.8c1.7,0,3.1-0.8,4.3-2.5v14c-2.9,1.9-6.3,2.8-10.4,2.8
		c-4.4,0-8-1.3-11-3.9s-4.5-6.2-4.5-10.7v-11h-7.4l25.5-20v10.1H231.6z"/>
	<path class="st9" d="M273.3,232.1v6.2c-4,5.2-9.7,7.8-17.1,7.8c-6.1,0-11.1-1.7-14.8-5.1c-3.7-3.4-5.6-7.9-5.6-13.5
		c0-5.3,1.7-9.6,5.1-12.9s7.9-5,13.3-5c2.8,0,5.4,0.5,7.8,1.4c2.4,0.9,4.4,2.3,6.2,4.1c1.7,1.8,3,3.9,3.8,6.3s1.2,5.3,1.2,8.8h-18.5
		c0.7,1.8,1.8,3.2,3.3,4.2c1.6,1,3.3,1.5,5.4,1.5C267.6,235.9,270.9,234.6,273.3,232.1z M253.7,224h8.5c-0.1-1.8-0.5-3.1-1.3-4.1
		c-0.8-1-1.8-1.5-3.1-1.5c-1.1,0-2.1,0.5-2.9,1.4C254.2,220.8,253.7,222.2,253.7,224z"/>
	<path class="st9" d="M297,218c2.3-5.4,5.6-8,10-8c2.4,0,4.5,0.8,6,2.4s2.4,3.6,2.4,6.1c0,2.6-0.8,4.7-2.3,6.3
		c-1.6,1.6-3.6,2.4-6.1,2.4c-2.9,0-5.3-1.1-7.3-3.2c-1.8,1.5-2.7,4.4-2.7,8.5v13.2h-18.1v-35.3H297V218z"/>
	<path class="st9" d="M315.9,242.1l4-9.9c1.3,1.7,2.8,3,4.5,3.9c1.8,0.9,3.5,1.4,5.2,1.4c1.1,0,1.9-0.2,2.5-0.7s1-1.1,1-1.8
		c0-0.7-0.3-1.4-0.8-1.9c-0.5-0.5-2-1.1-4.3-1.8c-2.3-0.7-4.2-1.4-5.7-2.2s-2.7-2-3.7-3.5s-1.5-3.2-1.5-5c0-3.5,1.5-6.2,4.5-8.2
		c3-1.9,7.3-2.9,12.7-2.9c6.1,0,11.4,1,15.7,3l-4.3,9c-2.9-2.6-5.6-3.8-8.3-3.8c-0.9,0-1.6,0.2-2.1,0.6s-0.8,0.9-0.8,1.5
		c0,0.7,0.3,1.3,0.8,1.9s2,1.1,4.4,1.7c2.4,0.6,4.5,1.3,6,2.1s2.9,2,3.8,3.5s1.4,3.3,1.4,5.4c0,3.6-1.5,6.5-4.4,8.6
		c-2.9,2.1-6.7,3.1-11.4,3.1C329,246.1,322.5,244.7,315.9,242.1z"/>
</g>
<g>
	<path class="st10" d="M92.1,286.5h-4.5V263l-4.5,4.5v5.6h-4.5v-5.6l-4.5-4.5v23.5h-4.5v-31.3h3.4l7.8,7.8l7.8-7.8h3.4V286.5z"/>
	<path class="st10" d="M117.8,286.5h-13.4c-2.4,0-4.5-0.9-6.3-2.6c-1.8-1.8-2.6-3.9-2.6-6.3v-4.5c0-2.4,0.9-4.5,2.6-6.3
		c1.8-1.8,3.9-2.6,6.3-2.6h4.5c2.4,0,4.5,0.9,6.3,2.6s2.6,3.9,2.6,6.3v4.5H100c0,1.2,0.4,2.3,1.3,3.2c0.9,0.9,1.9,1.3,3.2,1.3h13.4
		V286.5z M113.4,273.1c0-1.2-0.4-2.3-1.3-3.2c-0.9-0.9-1.9-1.3-3.2-1.3h-4.5c-1.2,0-2.3,0.4-3.2,1.3c-0.9,0.9-1.3,1.9-1.3,3.2H113.4
		z"/>
	<path class="st10" d="M143.6,286.5h-4.5v-13.4c0-1.2-0.4-2.3-1.3-3.2c-0.9-0.9-1.9-1.3-3.2-1.3v17.9h-4.5v-17.9h-4.5v17.9h-4.5
		v-22.4h13.4c2.4,0,4.5,0.9,6.3,2.6s2.6,3.9,2.6,6.3V286.5z"/>
	<path class="st10" d="M169.3,277.5c0,2.4-0.9,4.5-2.6,6.3c-1.8,1.8-3.9,2.6-6.3,2.6h-4.5c-2.4,0-4.5-0.9-6.3-2.6
		c-1.8-1.8-2.6-3.9-2.6-6.3v-4.5c0-2.4,0.9-4.5,2.6-6.3c1.8-1.8,3.9-2.6,6.3-2.6h4.5c2.4,0,4.5,0.9,6.3,2.6c1.8,1.8,2.6,3.9,2.6,6.3
		V277.5z M164.9,277.5v-4.5c0-1.2-0.4-2.3-1.3-3.2c-0.9-0.9-1.9-1.3-3.2-1.3h-4.5c-1.2,0-2.3,0.4-3.2,1.3c-0.9,0.9-1.3,1.9-1.3,3.2
		v4.5c0,1.2,0.4,2.3,1.3,3.2c0.9,0.9,1.9,1.3,3.2,1.3h4.5c1.2,0,2.3-0.4,3.2-1.3C164.4,279.8,164.9,278.7,164.9,277.5z"/>
	<path class="st10" d="M177.2,264.1v6.1l2.8-2.8c2.2-2.2,4.3-3.4,6.1-3.4c2.5,0,4.6,0.9,6.3,2.6c1.7,1.7,2.6,3.9,2.6,6.3h-4.5
		c0-1.2-0.4-2.3-1.3-3.2c-0.9-0.9-1.9-1.3-3.2-1.3c-1.5,0-3,0.7-4.5,2.2l-4.5,4.5v11.2h-4.5v-22.4H177.2z"/>
	<path class="st10" d="M220.8,286.5c0,2.4-0.9,4.5-2.6,6.3c-1.8,1.7-3.9,2.6-6.3,2.6H203v-4.5h8.9c1.2,0,2.3-0.4,3.2-1.3
		c0.9-0.9,1.3-1.9,1.3-3.1h-8.9c-2.4,0-4.5-0.9-6.3-2.6c-1.8-1.8-2.6-3.9-2.6-6.3v-13.4h4.5v13.4c0,1.2,0.4,2.3,1.3,3.2
		c0.9,0.9,1.9,1.3,3.2,1.3h8.9v-17.9h4.5V286.5z"/>
	<path class="st10" d="M258.4,277.5c0,2.4-0.9,4.5-2.6,6.3c-1.8,1.8-3.9,2.6-6.3,2.6H245c-2.4,0-4.5-0.9-6.3-2.6
		c-1.8-1.8-2.6-3.9-2.6-6.3v-13.4c0-2.4,0.9-4.5,2.6-6.3c1.8-1.8,3.9-2.6,6.3-2.6h4.5c2.4,0,4.5,0.9,6.3,2.6
		c1.8,1.8,2.6,3.9,2.6,6.3h-4.5c0-1.2-0.4-2.3-1.3-3.2c-0.9-0.9-1.9-1.3-3.2-1.3H245c-1.2,0-2.3,0.4-3.2,1.3
		c-0.9,0.9-1.3,1.9-1.3,3.2v13.4c0,1.2,0.4,2.3,1.3,3.2c0.9,0.9,1.9,1.3,3.2,1.3h4.5c1.2,0,2.3-0.4,3.2-1.3c0.9-0.9,1.3-1.9,1.3-3.2
		v-4.5h-4.5v-4.5h8.9V277.5z"/>
	<path class="st10" d="M284.2,264.1v22.4h-4.5v-6.2l-2.8,2.8c-2.2,2.2-4.3,3.4-6.2,3.4c-2.5,0-4.6-0.9-6.3-2.6
		c-1.7-1.7-2.6-3.9-2.6-6.3v-4.5c0-2.5,0.9-4.6,2.6-6.3c1.7-1.7,3.9-2.6,6.3-2.6H284.2z M270.7,268.6c-1.2,0-2.3,0.4-3.2,1.3
		c-0.9,0.9-1.3,1.9-1.3,3.2v4.5c0,1.2,0.4,2.3,1.3,3.2c0.9,0.9,1.9,1.3,3.2,1.3c1.5,0,3-0.7,4.5-2.2l4.5-4.5v-6.7H270.7z"/>
	<path class="st10" d="M309.9,286.5h-4.5v-13.4c0-1.2-0.4-2.3-1.3-3.2c-0.9-0.9-1.9-1.3-3.2-1.3v17.9h-4.5v-17.9H292v17.9h-4.5
		v-22.4H301c2.4,0,4.5,0.9,6.3,2.6c1.8,1.8,2.6,3.9,2.6,6.3V286.5z"/>
	<path class="st10" d="M335.7,286.5h-13.4c-2.4,0-4.5-0.9-6.3-2.6c-1.8-1.8-2.6-3.9-2.6-6.3v-4.5c0-2.4,0.9-4.5,2.6-6.3
		c1.8-1.8,3.9-2.6,6.3-2.6h4.5c2.4,0,4.5,0.9,6.3,2.6s2.6,3.9,2.6,6.3v4.5h-17.9c0,1.2,0.4,2.3,1.3,3.2c0.9,0.9,1.9,1.3,3.2,1.3
		h13.4V286.5z M331.2,273.1c0-1.2-0.4-2.3-1.3-3.2c-0.9-0.9-1.9-1.3-3.2-1.3h-4.5c-1.2,0-2.3,0.4-3.2,1.3c-0.9,0.9-1.3,1.9-1.3,3.2
		H331.2z"/>
</g>
</svg>
