<?xml version="1.0" encoding="utf-8"?>
<!-- Generator: Adobe Illustrator 24.0.1, SVG Export Plug-In . SVG Version: 6.00 Build 0)  -->
<svg version="1.1" id="Capa_1" xmlns="http://www.w3.org/2000/svg" xmlns:xlink="http://www.w3.org/1999/xlink" x="0px" y="0px"
	 viewBox="0 0 400 350" style="enable-background:new 0 0 400 350;" xml:space="preserve">
<style type="text/css">
	.st0{fill:none;stroke:#FF8E78;stroke-width:2.7612;stroke-miterlimit:10;}
	.st1{fill:#FFCB77;stroke:#FF8E78;stroke-width:2.7612;stroke-miterlimit:10;}
	.st2{fill:#FFB3B3;}
	.st3{opacity:0.3;}
	.st4{fill:#A61162;}
	.st5{fill:none;stroke:#A61162;stroke-width:0.6188;stroke-miterlimit:10;}
	.st6{opacity:0.6;}
	.st7{fill:#FFFFFF;}
	.st8{fill:#17C3B2;stroke:#227C9D;stroke-width:6.412;stroke-miterlimit:10;}
	.st9{display:none;}
	.st10{display:inline;}
	.st11{fill:#17C3B2;stroke:#227C9D;stroke-width:3.7805;stroke-miterlimit:10;}
</style>
<g>
	<g>
		<g>
			<path class="st0" d="M153.5,233.2c-61-9.6-81.6-85.6-63-137c6.6-18.3,19.1-33.9,34.4-45.7"/>
			<g>
				<path class="st1" d="M129.9,225.9c0,0,14.7-23.6-6.7-57.2C122.4,170.4,111.9,199.9,129.9,225.9z"/>
				<path class="st1" d="M115.9,216.3c0,0-26.9,7.1-52.8-23.1C65.1,192.9,96.3,191.5,115.9,216.3z"/>
				<path class="st1" d="M92.3,182.1c0,0-27.6-3.5-40.2-41.3C54,141.3,83.5,151.7,92.3,182.1z"/>
				<path class="st1" d="M83.4,144.2c0,0-25-12.2-24.8-52C60.3,93.2,84.8,112.6,83.4,144.2z"/>
				<path class="st1" d="M87.4,104c0,0-20.8-18.5-9.9-56.8C78.8,48.8,97.2,74,87.4,104z"/>
				<path class="st1" d="M100.3,75.5c0,0-11.8-23.9,10.8-53.5C111.7,23.8,119.2,52.8,100.3,75.5z"/>
				<path class="st1" d="M101.9,200c0,0,22.6-20.5,11.4-61.8C111.8,139.8,91.7,166.3,101.9,200z"/>
				<path class="st1" d="M85.5,154c0,0,23.7-13.5,24.6-53.6C108.4,101.5,85.5,119.4,85.5,154z"/>
				<path class="st1" d="M108.1,72.1c6.8-4.9,14.6-8.3,22.7-10.7c0,1.7-0.2,3.3-0.7,5c-0.5,2-1.4,3.9-2.3,5.8
					c-7.5,14.8-22.8,28.8-39.5,32.1c0.1-1.9,1.3-4.4,1.8-6.2C93.2,87.3,99.1,78.6,108.1,72.1z"/>
				<path class="st1" d="M126.7,46.1c11.1-9,25.3-14,39.6-14c0.3,4.5-5.6,8.6-8.7,11c-7.1,5.4-14.5,9-23.2,11.3
					c-5.3,1.4-11.3,2.6-16.9,2.6c-0.2,0-0.4,0-0.5-0.1c-0.1-0.2,0-0.5,0.1-0.6c1.1-1.5,2.5-2.8,3.7-4.3
					C122.6,49.8,124.5,47.9,126.7,46.1z"/>
			</g>
		</g>
		<g>
			<path class="st0" d="M248.2,233.2c61-9.6,81.6-85.6,63-137c-6.6-18.3-19.1-33.9-34.4-45.7"/>
			<g>
				<path class="st1" d="M271.8,225.9c0,0-14.7-23.6,6.7-57.2C279.3,170.4,289.8,199.9,271.8,225.9z"/>
				<path class="st1" d="M285.8,216.3c0,0,26.9,7.1,52.8-23.1C336.6,192.9,305.4,191.5,285.8,216.3z"/>
				<path class="st1" d="M309.4,182.1c0,0,27.6-3.5,40.2-41.3C347.7,141.3,318.2,151.7,309.4,182.1z"/>
				<path class="st1" d="M318.3,144.2c0,0,25-12.2,24.8-52C341.4,93.2,316.9,112.6,318.3,144.2z"/>
				<path class="st1" d="M314.3,104c0,0,20.8-18.5,9.9-56.8C322.9,48.8,304.5,74,314.3,104z"/>
				<path class="st1" d="M301.4,75.5c0,0,11.8-23.9-10.8-53.5C290,23.8,282.5,52.8,301.4,75.5z"/>
				<path class="st1" d="M299.8,200c0,0-22.6-20.5-11.4-61.8C289.9,139.8,310,166.3,299.8,200z"/>
				<path class="st1" d="M316.2,154c0,0-23.7-13.5-24.6-53.6C293.3,101.5,316.2,119.4,316.2,154z"/>
				<path class="st1" d="M293.6,72.1c-6.8-4.9-14.6-8.3-22.7-10.7c0,1.7,0.2,3.3,0.7,5c0.5,2,1.4,3.9,2.3,5.8
					c7.5,14.8,22.8,28.8,39.5,32.1c-0.1-1.9-1.3-4.4-1.8-6.2C308.5,87.3,302.6,78.6,293.6,72.1z"/>
				<path class="st1" d="M275,46.1c-11.1-9-25.3-14-39.6-14c-0.3,4.5,5.6,8.6,8.7,11c7.1,5.4,14.5,9,23.2,11.3
					c5.3,1.4,11.3,2.6,16.9,2.6c0.2,0,0.4,0,0.5-0.1c0.1-0.2,0-0.5-0.1-0.6c-1.1-1.5-2.5-2.8-3.7-4.3
					C279.1,49.8,277.2,47.9,275,46.1z"/>
			</g>
		</g>
	</g>
</g>
<g>
	<g>
		<g>
			<g>
				<path class="st2" d="M120.8,173.1c0,4.6,0.8,8.9,2.4,12.9c5.2,13.7,18.5,23.5,34.1,23.5c15.9,0,29.5-10.2,34.4-24.5
					c29.4,2.1,46.3-11,53.3-36.1c17.7-4.8,30.7-21,30.7-40.2c0-12.4-5.4-23.6-14.1-31.2c-7.3-6.5-17-10.4-27.6-10.4
					c-12.1,0-23,5.2-30.6,13.4c-5.1-3.3-11.2-5.3-17.8-5.3c-4.6,0-8.9,0.9-12.9,2.7c-11.4,4.9-19.5,16.2-19.7,29.5
					c0,0.2,0,0.3,0,0.5c0,0.2,0,0.4,0,0.6v0c-1.7-0.4-3.4-0.6-5.2-0.6c-7.9,0-15,3.8-19.4,9.7h0c-3.1,4.1-4.9,9.2-4.9,14.7
					c0,5.9,2.1,11.4,5.7,15.6c0.3,0.3,0.6,0.7,0.9,1C124.3,155.2,120.8,163.7,120.8,173.1z"/>
			</g>
		</g>
		<g class="st3">
			<g>
				<path class="st4" d="M123.2,186c5.2,13.7,18.5,23.5,34.1,23.5c15.9,0,29.5-10.2,34.4-24.5c29.4,2.1,46.3-11,53.3-36.1
					c17.7-4.8,30.7-21,30.7-40.2c0-12.4-5.4-23.6-14.1-31.2c4.1,10.3-8.5,23.8-24.8,15.3c0,0-0.4-1.2-1.4-2.5
					c-1.7-2.2-5.2-1.4-5.8,1.4c-1.6,8.1-11,11.7-16.1-3.1l-6.3-5.1c6.6,18.9-6.6,26.1-19.9,21.6c-1.1-0.4-2.2,0.7-1.7,1.8
					c6.8,15.1-6.9,34.2-29.1,27.9c7.6,15.6,3.1,35.3-17.1,30.6c-0.9-0.2-1.5,0.9-0.8,1.5c2.1,2,6.3,4.5,13.5,4.9
					C162,189.4,147.9,214.1,123.2,186C123.2,186,123.2,186,123.2,186z"/>
			</g>
		</g>
		<g>
			<g>
				<path class="st4" d="M157.3,211.7c-21.3,0-38.6-17.3-38.6-38.6c0-8.9,3-17.4,8.6-24.3c-3.8-4.7-5.9-10.5-5.9-16.6
					c0-14.6,11.9-26.5,26.5-26.5c1,0,2,0.1,3.1,0.2c1-18.2,16.2-32.7,34.7-32.7c6.2,0,12.2,1.6,17.4,4.7c8.2-8.2,19.4-12.8,31-12.8
					c24.2,0,43.8,19.6,43.8,43.8c0,19.3-12.7,36.4-31.1,41.9c-7.6,25.8-25.6,38.1-53.5,36.6C187.4,201.9,173.2,211.7,157.3,211.7z
					 M147.9,110c-12.2,0-22.2,9.9-22.2,22.2c0,5.6,2.1,11,6,15.1c0.8,0.8,0.8,2.1,0,2.9c-5.6,6.3-8.7,14.4-8.7,22.8
					c0,18.9,15.4,34.3,34.3,34.3c14.6,0,27.6-9.2,32.4-23c0.3-0.9,1.2-1.5,2.2-1.4c27.3,2,44-9.3,51-34.5c0.2-0.7,0.8-1.3,1.5-1.5
					c17.1-4.7,29.1-20.3,29.1-38.1c0-21.8-17.7-39.5-39.5-39.5c-11,0-21.6,4.6-29,12.7c-0.7,0.8-1.9,0.9-2.8,0.3
					c-4.9-3.2-10.7-4.9-16.6-4.9c-16.8,0-30.4,13.6-30.4,30.4c0,0.2,0,0.3,0,0.5c0,0,0,0,0,0.1c0,0.7-0.3,1.3-0.8,1.7
					c-0.5,0.4-1.2,0.6-1.8,0.4C151.1,110.2,149.5,110,147.9,110z"/>
			</g>
		</g>
		<g>
			<g>
				<path class="st4" d="M156.4,175.4c-3,0-6.1-0.3-9-1c-1.2-0.3-1.9-1.4-1.7-2.6c0.3-1.2,1.4-1.9,2.6-1.7c2.6,0.6,5.4,0.9,8.1,0.9
					c21,0,38.1-17.1,38.1-38.1c0-9.6-3.6-18.7-10-25.8c-0.8-0.9-0.8-2.3,0.1-3.1c0.9-0.8,2.3-0.8,3.1,0.1c7.2,7.8,11.2,18,11.2,28.7
					C198.8,156.4,179.8,175.4,156.4,175.4z"/>
			</g>
		</g>
		<g>
			<g>
				<path class="st4" d="M207.9,121c-1.2,0-2.2-1-2.2-2.2c0-1.2,1-2.2,2.2-2.2c13.5,0,24.8-10.5,25.7-24c0.1-1.2,1.1-2.1,2.3-2
					c1.2,0.1,2.1,1.1,2,2.3C236.8,108.7,223.6,121,207.9,121z"/>
			</g>
		</g>
		<g>
			<g>
				<path class="st4" d="M163.4,115.6c-0.5,0-1-0.2-1.4-0.5c-2.7-2.3-6-3.8-9.4-4.6c-1.2-0.3-1.9-1.4-1.7-2.6
					c0.3-1.2,1.4-1.9,2.6-1.7c4.1,0.9,8,2.8,11.3,5.5c0.9,0.8,1,2.1,0.3,3C164.6,115.3,164,115.6,163.4,115.6z"/>
			</g>
		</g>
		<g>
			<g>
				<path class="st4" d="M214.5,95c-0.8,0-1.5-0.4-1.9-1.2c-2.4-4.6-6-8.6-10.4-11.4c-1-0.7-1.3-2-0.6-3c0.7-1,2-1.3,3-0.6
					c5,3.3,9.1,7.8,11.9,13.1c0.6,1.1,0.1,2.4-0.9,2.9C215.2,94.9,214.9,95,214.5,95z"/>
			</g>
		</g>
		<g>
			<g>
				<path class="st4" d="M130.1,151c-0.5,0-1.1-0.2-1.5-0.6c-0.9-0.8-0.9-2.2-0.1-3.1c0.1-0.1,3-3.1,6.9-6.2c0.9-0.7,2.3-0.6,3,0.4
					c0.7,0.9,0.6,2.3-0.4,3c-3.7,2.9-6.4,5.8-6.5,5.8C131.2,150.7,130.7,151,130.1,151z"/>
			</g>
		</g>
		<g>
			<g>
				<path class="st4" d="M164.8,141.4c-0.4,0-0.9-0.1-1.3-0.4c-2.4-1.8-5.3-2.8-8.3-2.8c-0.8,0-1.7,0.1-2.5,0.2
					c-1.2,0.2-2.3-0.6-2.5-1.7c-0.2-1.2,0.6-2.3,1.7-2.5c1.1-0.2,2.2-0.3,3.3-0.3c4,0,7.7,1.2,10.9,3.6c1,0.7,1.2,2.1,0.4,3
					C166.1,141.1,165.4,141.4,164.8,141.4z"/>
			</g>
		</g>
		<g>
			<g>
				<path class="st5" d="M264,79.9"/>
			</g>
		</g>
		<g class="st3">
			<g>
				<path class="st4" d="M123.6,132.2c0,5.9,2.1,11.4,5.7,15.6l8.7-5.4c1.1-0.7,1-2.3-0.1-2.9c-13.5-6.9-9.3-21.9-9.3-21.9h0
					C125.4,121.6,123.6,126.7,123.6,132.2z"/>
			</g>
		</g>
		<g class="st3">
			<g>
				<path class="st4" d="M153.1,107.4c4.4,1.2,8.9,3.9,11.9,5.9c1.1,0.7,2.4-0.3,2-1.6c-5.3-15.2-0.7-25.1,6.9-33.2l-1.2-0.6
					C161.3,82.9,153.2,94.2,153.1,107.4z"/>
			</g>
		</g>
		<g class="st6">
			<g>
				<path class="st7" d="M176.5,86.9c0,3.5,4.3,1.3,9.7,1.3c5.4,0,9.7,2.3,9.7-1.3c0-3.5-4.3-6.4-9.7-6.4
					C180.8,80.6,176.5,83.4,176.5,86.9z"/>
			</g>
		</g>
		<g class="st6">
			<g>
				<path class="st7" d="M138.2,122.4c0,3.5,4.3,1.3,9.7,1.3c5.4,0,9.7,2.3,9.7-1.3c0-3.5-4.3-6.4-9.7-6.4
					C142.5,116,138.2,118.9,138.2,122.4z"/>
			</g>
		</g>
		<g class="st6">
			<g>
				<path class="st7" d="M147.3,189.5c2.1-2.8-2.7-3.6-7-6.8c-4.3-3.2-6.4-7.6-8.5-4.8s-0.3,7.7,3.9,10.9
					C139.9,192,145.1,192.4,147.3,189.5z"/>
			</g>
		</g>
		<g class="st6">
			<g>
				<path class="st7" d="M232.3,77.7c-1,3.4,4.6,2.7,10.7,4.5c6.1,1.8,10.4,5.5,11.4,2.1c1-3.4-3.1-7.6-9.3-9.4
					C239.1,73.1,233.3,74.3,232.3,77.7z"/>
			</g>
		</g>
		<g>
			<g>
				
					<ellipse transform="matrix(0.7071 -0.7071 0.7071 0.7071 11.2945 181.7223)" class="st7" cx="225" cy="77.2" rx="3.4" ry="2.9"/>
			</g>
		</g>
		<g class="st6">
			<g>
				
					<ellipse transform="matrix(0.9236 -0.3833 0.3833 0.9236 -48.6645 68.0409)" class="st7" cx="146.4" cy="156.1" rx="6.4" ry="4.6"/>
			</g>
		</g>
		<path class="st8" d="M103.7,162.3V66.7h41.1L162,86.6l17.3-19.9h41v95.6H178v-47.8l-16,18.5l-16-18.5v47.8H103.7z"/>
		<g>
			<g>
				<g>
					<path class="st4" d="M238.8,217c-0.3,0-0.6-0.1-0.9-0.2c-1.1-0.5-1.5-1.8-1-2.9c1.5-3.1,2.4-6.5,2.8-9.9c0.1-1.2,1.2-2,2.4-1.9
						c1.2,0.1,2,1.2,1.9,2.4c-0.4,3.9-1.5,7.7-3.2,11.3C240.4,216.6,239.6,217,238.8,217z"/>
				</g>
			</g>
			<g>
				<g>
					<path class="st2" d="M167.3,189.5c-1.3,3.5-1.9,7.3-1.9,11.1c0,19.5,17.2,35.4,38.3,35.4c15.7,0,29.2-8.7,35.1-21.2
						c4.9,3.3,10.7,5.2,17,5.2c14.1,0,26-9.7,29.7-22.9c2.6,0.6,5.3,1,8.1,1c18.4,0,33.3-14.9,33.3-33.3c0-14.1-8.8-26.2-21.2-31
						c0.5-2,0.7-4.1,0.7-6.3c0-16.7-15.5-30.2-34.6-30.2c-11,0-20.8,4.5-27.1,11.4c-5.1-2.7-11-4.3-17.2-4.3
						c-19.4,0-35.1,15-35.1,33.6c0,0.4,0,0.9,0,1.3c-16,2.9-28.2,17.6-28.2,35.3C164.2,180,165.3,185,167.3,189.5z"/>
				</g>
			</g>
			<g class="st3">
				<g>
					<path class="st4" d="M196.6,175.2c16.2,13.7,45,7.4,42.1-22.5l3.4,12.7c9.6,0.8,11.4,7.9,11.6,16.4l4.2,5.9
						c0,0-9.4-8.1-26.8-0.7c-17.4,7.4-22.4,9.9-26.2,17.3l-2.3-0.5c-9.3-9.5-15.5-18.9-9.9-28C193.6,174.4,195.4,174.2,196.6,175.2z
						"/>
				</g>
			</g>
			<g class="st3">
				<g>
					<path class="st4" d="M271.4,160.9c-15.1-1.1-26.6-12.4-17-20.6c12.4,3.1,15.6-3.5,15.6-3.5c7.6-10.8,17.3-9.9,27.8-5
						c-18.5,2-22.2,26.7-5.1,31c-0.8,0.3-13.4,3.8-13.4,3.8l-5.2-3.8"/>
				</g>
			</g>
			<g class="st3">
				<g>
					<path class="st4" d="M209,109.5c-8.7,13.9-8.9,26,7,34.6c-7.1-3.7-14.5-6.2-22.5-5.6C191.9,124.8,199.1,116.3,209,109.5z"/>
				</g>
			</g>
			<g class="st3">
				<g>
					<path class="st4" d="M270.2,97.4c-10.2,4.6-17.2,10.3-14.5,19.4l-8.5-8.5l7-5.6l5-2.7"/>
				</g>
			</g>
			<g class="st3">
				<g>
					<path class="st4" d="M166.6,189.5c-2.9-14-1.4-25.5,3.7-35.3c-2.5,12.5-1,20.2,7.6,19l-5.6,6.2"/>
				</g>
			</g>
			<g class="st3">
				<g>
					<path class="st4" d="M165.4,200.7c0,19.5,17.2,35.4,38.3,35.4c15.7,0,29.2-8.7,35.1-21.2c4.9,3.3,10.7,5.2,17,5.2
						c14.1,0,26-9.7,29.7-22.9c3.7,0.9,7.6,1.2,11.7,0.8c17.1-1.8,29.8-16.1,29.8-33.3c0-1.8-0.2-3.6-0.5-5.4
						c-2.6,15.8-16.4,27.7-32.9,27.7c-2.8,0-5.5-0.3-8.1-1c-3.7,13.3-15.6,22.9-29.7,22.9c-4.9,0-9.6-1.2-13.7-3.3
						c-1.8-0.9-4.1-0.3-5.1,1.4c-6.6,10.6-19,17.8-33.3,17.8c-19.1,0-34.9-12.9-37.8-29.8C165.5,196.9,165.4,198.8,165.4,200.7z"/>
				</g>
			</g>
			<g>
				<g>
					<path class="st4" d="M167.3,191.7c-0.2,0-0.5,0-0.7-0.1c-1.1-0.4-1.7-1.6-1.3-2.8c2.5-6.9,7-12.9,13.2-17.5
						c1-0.7,2.3-0.5,3,0.5c0.7,1,0.5,2.3-0.5,3c-5.5,4-9.5,9.4-11.7,15.5C169,191.1,168.2,191.7,167.3,191.7z"/>
				</g>
			</g>
			<g>
				<g>
					<path class="st4" d="M285.5,199.3c-0.2,0-0.4,0-0.6-0.1c-1.2-0.3-1.8-1.5-1.5-2.7c0.8-2.7,1.1-5.4,1.1-8.3
						c0-11.4-6.2-21.6-16.1-26.6c-1.1-0.5-1.5-1.8-1-2.9c0.5-1.1,1.8-1.5,2.9-1c11.4,5.8,18.5,17.4,18.5,30.5c0,3.2-0.4,6.4-1.3,9.4
						C287.3,198.7,286.4,199.3,285.5,199.3z"/>
				</g>
			</g>
			<g>
				<g>
					<path class="st4" d="M305.7,136c-0.3,0-0.5,0-0.8-0.1c-2.6-1-5.3-1.7-8.1-2c-1.2-0.1-2.1-1.2-1.9-2.4c0.1-1.2,1.2-2.1,2.4-1.9
						c3.2,0.3,6.3,1.1,9.2,2.2c1.1,0.4,1.7,1.7,1.2,2.8C307.4,135.5,306.5,136,305.7,136z"/>
				</g>
			</g>
			<g>
				<g>
					<path class="st4" d="M244.7,110.9c-0.6,0-1.1-0.2-1.5-0.6c-0.8-0.8-0.8-2.2,0-3.1l0,0c0.8-0.8,2.2-0.8,3.1,0
						c0.8,0.8,0.8,2.2,0,3.1C245.8,110.7,245.2,110.9,244.7,110.9z"/>
				</g>
			</g>
			<g>
				<g>
					<path class="st4" d="M255.7,120.3c-0.6,0-1.3-0.3-1.7-0.8c-2.8-3.6-6.4-6.6-10.4-8.8c-1.1-0.6-1.4-1.9-0.9-2.9
						c0.6-1.1,1.9-1.4,2.9-0.9c4.6,2.5,8.6,5.9,11.8,10c0.7,0.9,0.6,2.3-0.4,3C256.7,120.1,256.2,120.3,255.7,120.3z"/>
				</g>
			</g>
			<g>
				<g>
					<path class="st4" d="M203.7,238.2c-22.3,0-40.5-16.8-40.5-37.5c0-3.8,0.6-7.5,1.8-11.1c-1.9-4.7-2.9-9.8-2.9-15
						c0-17.9,11.7-33.2,28.1-37.1c0.2-19.5,16.9-35.3,37.3-35.3c5.8,0,11.6,1.3,16.7,3.8c7-7,16.9-10.9,27.6-10.9
						c20.3,0,36.8,14.5,36.8,32.4c0,1.7-0.1,3.3-0.4,5c5.9,2.6,10.9,6.8,14.6,12.1c4.2,6,6.3,13,6.3,20.2
						c0,19.6-15.9,35.5-35.5,35.5c-2.2,0-4.5-0.2-6.7-0.6c-4.6,13.4-17.2,22.6-31.2,22.6c-5.7,0-11.2-1.5-16.2-4.3
						C232.7,230.3,218.9,238.2,203.7,238.2z M227.5,106.6c-18.2,0-32.9,14.1-32.9,31.4c0,0.5,0,0.9,0,1.2c0.1,1.1-0.7,2.1-1.8,2.3
						c-15.3,2.8-26.4,16.8-26.4,33.2c0,4.9,1,9.6,2.9,14c0.2,0.5,0.2,1.1,0.1,1.6c-1.2,3.3-1.8,6.8-1.8,10.4
						c0,18.3,16.2,33.2,36.1,33.2c14.4,0,27.4-7.8,33.1-19.9c0.3-0.6,0.8-1,1.4-1.2c0.6-0.2,1.3-0.1,1.8,0.3
						c4.7,3.2,10.1,4.9,15.8,4.9c12.7,0,24.1-8.8,27.6-21.4c0.3-1.1,1.5-1.8,2.6-1.5c2.5,0.6,5,0.9,7.6,0.9
						c17.2,0,31.2-14,31.2-31.2c0-12.9-7.8-24.3-19.9-29c-1-0.4-1.6-1.5-1.3-2.5c0.5-1.9,0.7-3.8,0.7-5.8
						c0-15.5-14.6-28.1-32.5-28.1c-10,0-19.3,3.9-25.5,10.7c-0.7,0.7-1.7,0.9-2.6,0.4C238.7,108,233.1,106.6,227.5,106.6z"/>
				</g>
			</g>
			<g>
				<g>
					<path class="st4" d="M222.3,151.5c-0.6,0-1.1-0.2-1.6-0.7c-6-6.3-14-9.8-22.5-9.8c-1.9,0-3.7,0.2-5.5,0.5
						c-1.2,0.2-2.3-0.6-2.5-1.7c-0.2-1.2,0.6-2.3,1.7-2.5c2-0.4,4.2-0.6,6.3-0.6c9.7,0,18.8,4,25.6,11.2c0.8,0.9,0.8,2.2-0.1,3.1
						C223.4,151.3,222.9,151.5,222.3,151.5z"/>
				</g>
			</g>
			<g>
				<g>
					<path class="st4" d="M215.3,193.6c-8.8,0-16.9-3.9-22.4-10.8c-0.7-0.9-0.6-2.3,0.3-3c0.9-0.7,2.3-0.6,3,0.3
						c4.6,5.8,11.6,9.1,19,9.1c13.4,0,24.3-10.9,24.3-24.3c0-5.6-1.9-11.1-5.5-15.4c-0.8-0.9-0.6-2.3,0.3-3c0.9-0.8,2.3-0.6,3,0.3
						c4.2,5.1,6.5,11.5,6.5,18.1C244,180.7,231.1,193.6,215.3,193.6z"/>
				</g>
			</g>
			<g>
				<g>
					<path class="st4" d="M203.6,206.7c-1.2,0-2.2-1-2.2-2.2c0-5.4,1.3-10.7,3.9-15.4c0.6-1.1,1.9-1.4,2.9-0.9
						c1.1,0.6,1.4,1.9,0.9,2.9c-2.2,4.1-3.4,8.7-3.4,13.3C205.7,205.8,204.8,206.7,203.6,206.7z"/>
				</g>
			</g>
			<g>
				<g>
					<path class="st4" d="M259,189.8c-0.7,0-1.4-0.3-1.8-1c-4.2-6.2-10.5-10.4-17.7-11.8c-1.2-0.2-1.9-1.4-1.7-2.5
						c0.2-1.2,1.4-1.9,2.5-1.7c8.4,1.7,15.7,6.5,20.5,13.7c0.7,1,0.4,2.3-0.6,3C259.8,189.7,259.4,189.8,259,189.8z"/>
				</g>
			</g>
			<g>
				<g>
					<path class="st4" d="M279.4,170.1c-0.7,0-1.4-0.3-1.8-0.9c-0.7-1-0.4-2.3,0.6-3c5.1-3.5,11.2-5.4,17.4-5.4
						c3.9,0,7.7,0.7,11.3,2.2c1.1,0.4,1.7,1.7,1.2,2.8c-0.4,1.1-1.7,1.7-2.8,1.2c-3.1-1.2-6.4-1.9-9.7-1.9c-5.4,0-10.6,1.6-15,4.7
						C280.3,169.9,279.9,170.1,279.4,170.1z"/>
				</g>
			</g>
			<g>
				<g>
					<path class="st4" d="M257.4,143.5c-2.1,0-4.3-0.3-6.3-0.9c-1.1-0.3-1.8-1.5-1.5-2.7c0.3-1.1,1.5-1.8,2.7-1.5
						c1.6,0.5,3.3,0.7,5.1,0.7c4.7,0,9.1-1.8,12.5-5.1c0.9-0.8,2.2-0.8,3.1,0c0.8,0.9,0.8,2.2,0,3.1
						C268.8,141.2,263.2,143.5,257.4,143.5z"/>
				</g>
			</g>
			<g class="st6">
				<g>
					<path class="st7" d="M216,121.4c0,4.9,7.4,0.5,15.3,0.5c7.9,0,13.4,4.4,13.4-0.5s-6.4-8.9-14.3-8.9S216,116.4,216,121.4z"/>
				</g>
			</g>
			<g class="st6">
				<g>
					<path class="st7" d="M186.2,152.3c0,4.2,4.4,0,10.4,0c6,0,11.4,4.2,11.4,0s-4.9-7.6-10.9-7.6S186.2,148.1,186.2,152.3z"/>
				</g>
			</g>
			<g class="st6">
				<g>
					<path class="st7" d="M211.8,215c1.2-4-5.4-1.6-12.9-3.8c-7.5-2.2-12.9-8.2-14.1-4.2c-1.2,4,3.9,9.1,11.4,11.3
						C203.6,220.6,210.6,219.1,211.8,215z"/>
				</g>
			</g>
			<g class="st6">
				<g>
					<path class="st7" d="M299.3,145.9c-2.8,3.1,3.3,3,7.7,7c4.5,4.1,5.6,10.8,8.5,7.7c2.8-3.1,1.5-8.9-3-13
						C308,143.5,302.1,142.7,299.3,145.9z"/>
				</g>
			</g>
			<g class="st6">
				<g>
					<path class="st7" d="M283.7,110.1c-2.3,2.1,1.3,4.2,4.6,7.9c3.3,3.6,5,7.4,7.4,5.3c2.3-2.1,1.6-6.8-1.7-10.4
						S286.1,107.9,283.7,110.1z"/>
				</g>
			</g>
			<g class="st6">
				<g>
					
						<ellipse transform="matrix(0.2239 -0.9746 0.9746 0.2239 110.8481 351.4572)" class="st7" cx="276.1" cy="106.1" rx="3" ry="4.4"/>
				</g>
			</g>
			<g class="st6">
				<g>
					
						<ellipse transform="matrix(0.6399 -0.7684 0.7684 0.6399 -56.8718 195.0898)" class="st7" cx="179.7" cy="158.2" rx="3.9" ry="2.9"/>
				</g>
			</g>
			<g class="st6">
				<g>
					<path class="st7" d="M264.6,173.8c-1.8,1,0.5,2.2,2,5.4s1.3,6.6,3.3,6.1c3.6-0.8,4.3-5.2,2.8-8.4S267.9,171.9,264.6,173.8z"/>
				</g>
			</g>
		</g>
	</g>
	<g class="st9">
		<g class="st10">
			<path class="st4" d="M203.7,239.6c-18.2,0-34.4-11.1-39.9-27.1c-2.2,0.4-4.3,0.5-6.5,0.5c-22.1,0-40-18-40-40
				c0-8.8,2.9-17.3,8.2-24.3c-3.5-4.8-5.5-10.6-5.5-16.6c0-15.4,12.5-27.9,27.9-27.9c0.6,0,1.2,0,1.8,0.1
				c1.8-18.4,17.3-32.6,36-32.6c6,0,11.9,1.5,17.2,4.3c8.3-8,19.7-12.5,31.2-12.5c19.4,0,36.4,12.2,42.7,30.5
				c8.9,1,17.2,4.8,23.3,10.8c6.4,6.2,9.9,14.3,9.9,22.7c0,1.4-0.1,2.8-0.3,4.1c12.8,6.2,20.8,18.8,20.8,33.2
				c0,20.3-16.5,36.9-36.9,36.9c-1.9,0-3.8-0.1-5.7-0.4c-5.2,13.4-17.9,22.4-32.1,22.4c-5.4,0-10.8-1.3-15.6-3.8
				C232.7,232.1,218.9,239.6,203.7,239.6z M164.7,209.5c0.6,0,1.2,0.4,1.3,1c4.7,15.5,20.2,26.3,37.6,26.3c14.7,0,28-7.5,34.7-19.5
				c0.2-0.3,0.5-0.6,0.9-0.7c0.4-0.1,0.8-0.1,1.1,0.1c4.7,2.7,10,4.1,15.5,4.1c13.4,0,25.3-8.7,29.8-21.6c0.2-0.7,0.9-1.1,1.6-0.9
				c2.1,0.4,4.2,0.6,6.4,0.6c18.8,0,34.1-15.3,34.1-34.1c0-13.6-7.7-25.5-20.1-31.1c-0.6-0.3-0.9-0.9-0.8-1.5
				c0.3-1.6,0.4-3.1,0.4-4.7c0-15.9-13.6-29.1-31.6-30.8c-0.6-0.1-1-0.4-1.2-1c-5.7-17.6-21.9-29.4-40.3-29.4
				c-11.2,0-22.1,4.5-30,12.4c-0.5,0.5-1.2,0.5-1.7,0.2c-5-2.9-10.8-4.5-16.7-4.5c-17.7,0-32.3,13.8-33.3,31.4c0,0.4-0.2,0.7-0.5,1
				c-0.3,0.3-0.7,0.4-1.1,0.3c-1-0.1-1.9-0.2-2.9-0.2c-13.8,0-25.1,11.3-25.1,25.1c0,5.7,2,11.3,5.5,15.7c0.4,0.5,0.4,1.3,0,1.8
				c-5.3,6.6-8.3,14.9-8.3,23.4c0,20.5,16.7,37.2,37.2,37.2c2.4,0,4.8-0.2,7.2-0.7C164.6,209.5,164.7,209.5,164.7,209.5z"/>
		</g>
	</g>
</g>
<g>
	<path class="st11" d="M61.8,307h-25v-24.6l-21.5-31.7h25.3l8.7,12.8l8.7-12.8h25.3l-21.4,31.7V307z"/>
	<path class="st11" d="M99.4,307.6c-7,0-12.8-2.1-17.4-6.4c-4.6-4.2-6.8-9.8-6.8-16.6c0-6.8,2.3-12.4,6.8-16.7
		c4.5-4.3,10.3-6.4,17.5-6.4c7.2,0,13.1,2.1,17.6,6.4c4.5,4.3,6.8,9.8,6.8,16.7c0,6.8-2.3,12.3-6.8,16.6
		C112.4,305.5,106.6,307.6,99.4,307.6z M99.4,279.1c-1.5,0-2.7,0.5-3.6,1.4c-0.9,0.9-1.4,2.2-1.4,3.7s0.5,2.7,1.4,3.7
		c0.9,0.9,2.1,1.4,3.6,1.4c1.5,0,2.7-0.5,3.7-1.4c0.9-0.9,1.4-2.2,1.4-3.7c0-1.5-0.5-2.8-1.4-3.7
		C102.1,279.6,100.9,279.1,99.4,279.1z"/>
	<path class="st11" d="M182.6,262.5V307h-21.9v-7.8h-0.1c-2.2,2.8-4.5,4.9-6.9,6.2c-2.3,1.3-5.1,2-8.3,2c-4.7,0-8.4-1.4-11.2-4.1
		c-2.8-2.8-4.3-6.6-4.3-11.6v-29.1h21.6v24c0,4,1.4,6.1,4.1,6.1c1.8,0,3.2-0.8,4.2-2.4v-27.7H182.6z"/>
	<path class="st11" d="M244.6,307h-18.3l-19.9-56.3h24.3l6.5,18.4l6.9-18.4h17.3l7.2,18.4l6.2-18.4h24.4l-19,56.3h-18.4l-8.9-22.3
		L244.6,307z"/>
	<path class="st11" d="M323.8,262.5V307H301v-44.5c3,1.7,6.9,2.5,11.7,2.5C317.2,265.1,320.9,264.2,323.8,262.5z M317.3,262.7
		c-1.8,0-3.3-0.6-4.6-1.9c-1.3-1.3-1.9-2.8-1.9-4.6c0-1.8,0.6-3.3,1.9-4.5c1.3-1.3,2.8-1.9,4.6-1.9c1.8,0,3.3,0.6,4.5,1.9
		c1.3,1.3,1.9,2.8,1.9,4.5c0,1.8-0.6,3.3-1.9,4.6C320.5,262,319,262.7,317.3,262.7z"/>
	<path class="st11" d="M355.1,262.5v5.6c3.8-4,8.4-5.9,13.8-5.9c5.2,0,9.2,1.4,11.9,4.3c2.8,2.9,4.2,7.2,4.2,12.9V307h-21.6V281
		c0-3.7-1.4-5.5-4.2-5.5c-1.4,0-2.7,0.5-4.1,1.4v30h-22.8v-44.5H355.1z"/>
</g>
</svg>
