<svg width="30" height="30" viewBox="0 0 30 30" fill="none" xmlns="http://www.w3.org/2000/svg">
<path fill-rule="evenodd" clip-rule="evenodd" d="M0 15C0 6.71573 6.71573 0 15 0C23.2843 0 30 6.71573 30 15C30 23.2843 23.2843 30 15 30C6.71573 30 0 23.2843 0 15ZM15 2.22222C7.94303 2.22222 2.22222 7.94303 2.22222 15C2.22222 22.057 7.94303 27.7778 15 27.7778C22.057 27.7778 27.7778 22.057 27.7778 15C27.7778 7.94303 22.057 2.22222 15 2.22222ZM14.2143 10.2301C13.7804 9.7962 13.7804 9.09269 14.2143 8.65877C14.6482 8.22485 15.3518 8.22485 15.7857 8.65877L21.3412 14.2143C21.7751 14.6482 21.7751 15.3518 21.3412 15.7857L15.7857 21.3412C15.3518 21.7751 14.6482 21.7751 14.2143 21.3412C13.7804 20.9073 13.7804 20.2038 14.2143 19.7699L17.8731 16.1111H9.44444C8.8308 16.1111 8.33333 15.6137 8.33333 15C8.33333 14.3864 8.8308 13.8889 9.44444 13.8889H17.8731L14.2143 10.2301Z" fill="white"/>
</svg>
