<svg width="39" height="39" viewBox="0 0 39 39" fill="none" xmlns="http://www.w3.org/2000/svg">
<path fill-rule="evenodd" clip-rule="evenodd" d="M1 19.0833C1 9.09616 9.09623 1 19.0833 1C29.0705 1 37.1667 9.09616 37.1667 19.0833C37.1667 29.0704 29.0705 37.1666 19.0833 37.1666C9.09622 37.1666 1 29.0704 1 19.0833ZM19.0833 3C10.2008 3 3 10.2007 3 19.0833C3 27.9659 10.2008 35.1666 19.0833 35.1666C27.9659 35.1666 35.1667 27.9659 35.1667 19.0833C35.1667 10.2007 27.9659 3 19.0833 3ZM19.7904 11.5428C20.1809 11.9334 20.1809 12.5665 19.7904 12.9571L14.6642 18.0833L25.9167 18.0833C26.469 18.0832 26.9167 18.531 26.9167 19.0832C26.9167 19.6355 26.469 20.0832 25.9167 20.0833L14.6642 20.0833L19.7904 25.2095C20.1809 25.6001 20.1809 26.2332 19.7904 26.6238C19.3999 27.0143 18.7667 27.0143 18.3762 26.6238L11.5429 19.7905C11.1524 19.3999 11.1524 18.7668 11.5429 18.3762L18.3762 11.5428C18.7667 11.1523 19.3999 11.1523 19.7904 11.5428Z" fill="#FEFEFE"/>
<path fill-rule="evenodd" clip-rule="evenodd" d="M0 19.0833C0 8.54388 8.54394 0 19.0833 0C29.6228 0 38.1667 8.54387 38.1667 19.0833C38.1667 29.6227 29.6228 38.1666 19.0833 38.1666C8.54394 38.1666 0 29.6227 0 19.0833ZM19.0833 4C10.7531 4 4 10.753 4 19.0833C4 27.4136 10.7531 34.1666 19.0833 34.1666C27.4136 34.1666 34.1667 27.4136 34.1667 19.0833C34.1667 10.753 27.4136 4 19.0833 4ZM17.6691 10.8357C18.4501 10.0547 19.7165 10.0547 20.4975 10.8357C21.2786 11.6168 21.2786 12.8831 20.4975 13.6642L17.0784 17.0833L25.9167 17.0833C27.0213 17.0832 27.9167 17.9787 27.9167 19.0832C27.9167 20.1878 27.0213 21.0832 25.9167 21.0833L17.0784 21.0833L20.4975 24.5024C21.2786 25.2835 21.2786 26.5498 20.4975 27.3309C19.7165 28.1119 18.4501 28.1119 17.6691 27.3309L10.8358 20.4976C10.0548 19.7165 10.0547 18.4502 10.8358 17.6691L17.6691 10.8357ZM13.9571 17.3762L12.25 19.0833L13.9571 20.7904C13.6711 20.5044 13.5855 20.0743 13.7403 19.7007C13.8951 19.327 14.2597 19.0833 14.6642 19.0833C14.2597 19.0833 13.8951 18.8397 13.7403 18.466C13.5856 18.0924 13.6711 17.6622 13.9571 17.3762Z" fill="#FEFEFE"/>
</svg>
