<svg width="100" height="100" viewBox="0 0 100 100" fill="none" xmlns="http://www.w3.org/2000/svg">
<path fill-rule="evenodd" clip-rule="evenodd" d="M0 50C0 22.3858 22.3858 0 50 0C77.6142 0 100 22.3858 100 50C100 77.6142 77.6142 100 50 100C22.3858 100 0 77.6142 0 50ZM50 8.57143C27.1196 8.57143 8.57143 27.1196 8.57143 50C8.57143 72.8804 27.1196 91.4286 50 91.4286C72.8804 91.4286 91.4286 72.8804 91.4286 50C91.4286 27.1196 72.8804 8.57143 50 8.57143ZM71.0297 35.2791C72.848 36.7943 73.0937 39.4967 71.5784 41.3151L48.7212 68.7437C47.9504 69.6687 46.8259 70.2268 45.6231 70.2813C44.4202 70.3359 43.2498 69.8819 42.3984 69.0305L28.6841 55.3162C27.0104 53.6425 27.0104 50.9289 28.6841 49.2553C30.3578 47.5816 33.0714 47.5816 34.745 49.2553L45.1409 59.6511L64.9936 35.8278C66.5089 34.0095 69.2113 33.7638 71.0297 35.2791Z" fill="white"/>
</svg>
