<svg width="26" height="26" viewBox="0 0 26 26" fill="none" xmlns="http://www.w3.org/2000/svg">
<path d="M24.25 13C24.25 6.78906 19.2109 1.75 13 1.75C6.78906 1.75 1.75 6.78906 1.75 13C1.75 19.2109 6.78906 24.25 13 24.25C19.2109 24.25 24.25 19.2109 24.25 13Z" stroke="white" stroke-width="1.875" stroke-miterlimit="10"/>
<path d="M18.012 9.59277L17.3458 8.81757C16.4348 7.86367 15.2372 7.23327 13.9351 7.02217C12.633 6.81106 11.2976 7.0308 10.1319 7.64798C8.96607 8.26516 8.03364 9.24604 7.47625 10.4416C6.91886 11.6371 6.767 12.9819 7.04373 14.2716C7.32047 15.5613 8.01067 16.7255 9.00946 17.5871C10.0082 18.4487 11.261 18.9607 12.5774 19.0453C13.8937 19.1299 15.2017 18.7824 16.3026 18.0557C17.4034 17.329 18.2369 16.2628 18.6765 15.0191" stroke="white" stroke-width="1.875" stroke-miterlimit="10" stroke-linecap="round"/>
</svg>
