<svg width="30" height="30" viewBox="0 0 30 30" fill="none" xmlns="http://www.w3.org/2000/svg">
<path fill-rule="evenodd" clip-rule="evenodd" d="M0 15C0 6.71857 6.71857 0 15 0C23.2814 0 30 6.71857 30 15C30 23.2814 23.2814 30 15 30C6.71857 30 0 23.2814 0 15ZM15 1.76471C7.69319 1.76471 1.76471 7.69319 1.76471 15C1.76471 22.3068 7.69319 28.2353 15 28.2353C22.3068 28.2353 28.2353 22.3068 28.2353 15C28.2353 7.69319 22.3068 1.76471 15 1.76471Z" fill="white"/>
<path fill-rule="evenodd" clip-rule="evenodd" d="M11.3687 7.92971C12.9489 7.11452 14.759 6.82429 16.524 7.10313C18.289 7.38196 19.9123 8.2146 21.1472 9.47453L21.1627 9.49033L21.9865 10.4243C22.2939 10.7728 22.2531 11.2982 21.8954 11.5977C21.5377 11.8973 20.9986 11.8575 20.6912 11.509L19.8971 10.6087C18.9209 9.61941 17.6413 8.96558 16.2507 8.74588C14.8529 8.52506 13.4193 8.75491 12.1678 9.40052C10.9163 10.0461 9.91531 11.0722 9.31694 12.3228C8.71857 13.5734 8.55554 14.9801 8.85262 16.3292C9.1497 17.6783 9.89065 18.8961 10.9629 19.7974C12.0351 20.6987 13.38 21.2343 14.7931 21.3227C16.2063 21.4112 17.6104 21.0478 18.7922 20.2876C19.974 19.5274 20.8688 18.4121 21.3407 17.1112C21.4978 16.6779 21.9857 16.4507 22.4304 16.6039C22.875 16.757 23.1081 17.2324 22.951 17.6657C22.3552 19.3084 21.2253 20.7167 19.7331 21.6765C18.2409 22.6363 16.4679 23.0953 14.6836 22.9835C12.8993 22.8718 11.2011 22.1955 9.84727 21.0575C8.49341 19.9194 7.55783 18.3818 7.18272 16.6784C6.8076 14.9749 7.01346 13.1986 7.769 11.6195C8.52454 10.0405 9.78846 8.74489 11.3687 7.92971Z" fill="white"/>
<path d="M23.3194 8.00159C23.232 8.00195 23.1455 8.01968 23.065 8.05374C22.9845 8.0878 22.9116 8.13752 22.8505 8.2L18.198 12.8509C18.1036 12.945 18.0392 13.0649 18.0131 13.1955C17.9869 13.3262 18.0002 13.4616 18.0512 13.5847C18.1021 13.7078 18.1885 13.813 18.2994 13.8869C18.4103 13.9609 18.5406 14.0002 18.6739 14H23.3264C23.5051 14 23.6764 13.9291 23.8027 13.8028C23.929 13.6765 24 13.5052 24 13.3267V8.67415C24.0002 8.58524 23.9828 8.49716 23.9487 8.41502C23.9147 8.33288 23.8646 8.25831 23.8016 8.19562C23.7385 8.13293 23.6636 8.08336 23.5812 8.04979C23.4989 8.01621 23.4107 7.9993 23.3217 8.00002L23.3194 8.00159Z" fill="white"/>
</svg>
