<svg width="100" height="100" viewBox="0 0 100 100" fill="none" xmlns="http://www.w3.org/2000/svg">
<path fill-rule="evenodd" clip-rule="evenodd" d="M0 50C0 22.3858 22.3858 0 50 0C77.6142 0 100 22.3858 100 50C100 77.6142 77.6142 100 50 100C22.3858 100 0 77.6142 0 50ZM50 8.33333C26.9881 8.33333 8.33333 26.9881 8.33333 50C8.33333 73.0119 26.9881 91.6667 50 91.6667C73.0119 91.6667 91.6667 73.0119 91.6667 50C91.6667 26.9881 73.0119 8.33333 50 8.33333ZM33.3039 33.3039C34.931 31.6767 37.5692 31.6767 39.1964 33.3039L50.0001 44.1076L60.8039 33.3039C62.431 31.6767 65.0692 31.6767 66.6964 33.3039C68.3236 34.931 68.3236 37.5692 66.6964 39.1964L55.8927 50.0001L66.6964 60.8039C68.3236 62.431 68.3236 65.0692 66.6964 66.6964C65.0692 68.3236 62.431 68.3236 60.8039 66.6964L50.0001 55.8927L39.1964 66.6964C37.5692 68.3236 34.931 68.3236 33.3039 66.6964C31.6767 65.0692 31.6767 62.431 33.3039 60.8039L44.1076 50.0001L33.3039 39.1964C31.6767 37.5692 31.6767 34.931 33.3039 33.3039Z" fill="white"/>
</svg>
